<svg xmlns="http://www.w3.org/2000/svg" viewBox="0 0 257 163.21"><defs><style>.cls-1{fill:#231f20;}.cls-2{fill:#ffcd05;}</style></defs><g id="Layer_2" data-name="Layer 2"><g id="Layer_1-2" data-name="Layer 1"><polygon class="cls-1" points="232.76 34.21 232.81 34.07 232.89 34.13 241.17 26.04 248.05 11.61 241.7 7.22 228.74 23.3 212.39 17.82 212.18 18.33 205.2 23.82 194.53 35.27 198.5 43.24 215.55 28.13 232.76 34.21"/><polygon class="cls-1" points="224.81 62.29 224.69 62.37 224.66 62.27 215.41 63.83 202.62 68.81 202.59 77.79 221.22 73.28 230.64 86.12 231.12 85.88 239.88 86.4 255.16 84.88 257 76.15 234.53 76.18 224.81 62.29"/><polygon class="cls-1" points="214.49 132.87 214.63 132.86 214.6 132.96 223.74 134.85 238.04 139.8 239.93 132.09 223.06 125.14 221.4 109.31 220.88 109.28 213.57 104.4 200.92 98.99 195.41 106 213.09 115.96 214.49 132.87"/><path class="cls-2" d="M66.09,45.2l28-19.07,33.6-13.44L159,0,163,9.27l-2.8,47.38L163,96.44v29.94l-4.48,25.07-12.32-3.27s-43.9-19.23-44.63-22-27.6-13.79-27.6-13.79-6.71.55-7.83-3.81,2.23-39.44,2.23-39.44Z"/><path class="cls-2" d="M168.76,69.72c0-1-2.35-10.37-2.35-10.37l2.35-6s9.36,1.34,10,2.34,3.68,3.35,3.68,10V88.12l-2.68,7h-7l-4.68-2.34.33-13Z"/><path class="cls-2" d="M55.56,43c-2.67-.67-17.06-2.34-17.06-2.34s-14.71,2-18.06,4S1,58.35,1,65-1.3,82.1,1,85.78s13.05,17.73,13.05,17.73,11.32,4.66,15,5.83,25.27,0,25.27,0l1.23-29.76,1.77-17.29Z"/><path class="cls-2" d="M51.72,118.78c1,.33,8.65,4,8.65,4l-11,21.71-5.32,16.19-6.65,2.54H25.12l-9.31-1.87L12.16,156s8.17-13,8.57-17,8.72-18.29,8.72-18.29Z"/></g></g></svg>