<svg xmlns="http://www.w3.org/2000/svg" viewBox="0 0 85.03 98.55"><defs><style>.cls-1{fill:#ffc20e;}.cls-2{fill:#231f20;}</style></defs><g id="Layer_2" data-name="Layer 2"><g id="Laag_1" data-name="Laag 1"><polygon class="cls-1" points="84.08 70.43 82.82 66.85 80.11 64.12 79.25 63.74 79.42 60.73 78.87 47.57 79.04 36.03 79.31 22.95 65.92 22.77 66.17 27.72 66.71 27.83 67.74 27.62 70.7 27.49 71.91 27.53 71.86 29.55 71.81 31.54 71.8 31.96 70.52 31.95 69.56 32.06 66.81 31.79 66.39 31.87 66.86 41.05 67.49 41.18 68.47 40.97 71.29 40.84 72.44 40.88 72.39 42.9 72.34 44.89 72.33 45.32 71.12 45.3 70.2 45.41 67.71 45.47 66.78 45.64 66.24 53.23 67.31 53.38 68.27 53.16 71.04 53.03 72.17 53.08 72.13 55.1 72.08 57.09 72.07 57.51 70.88 57.49 69.98 57.6 67.41 57.34 65.97 57.52 65.66 64.18 63.15 66.77 61.2 70.27 60.76 74.07 61.39 78.3 63.46 81.45 65.86 83.73 69.4 85.71 72.88 86 76.69 85.8 80.06 83.95 82.64 81.16 84.33 77.79 85.03 74.07 84.08 70.43"/><polygon class="cls-1" points="18 13.25 17.95 13.22 17.99 13.19 15.68 8.74 10.58 4.06 7.96 6.13 12.97 13.54 8.63 19.62 8.82 19.77 10.21 23.36 13.6 29.23 17.4 28.6 13.3 19.62 18 13.25"/><polygon class="cls-1" points="28.84 14.32 28.88 14.37 28.84 14.38 29.78 18.34 32.3 23.73 36.18 23.48 33.7 15.55 38.98 11.11 38.86 10.91 38.83 7.11 37.73 0.54 33.91 0 34.57 9.72 28.84 14.32"/><polygon class="cls-1" points="59.58 14.19 59.55 14.14 59.59 14.13 58.22 10.32 56.81 3.92 53.53 4.96 54.78 12.77 49.31 16.97 49.42 17.17 49.27 20.97 50.13 26.87 53.97 27.32 53.65 18.53 59.58 14.19"/><path class="cls-1" d="M60.29,83.94l-2.76-4.21-.85-5.65.4-3.48-1.59,2.87-1.42-.61s-3-3.73-3-3.73h0l-1.72,1.44c.25,1.54,2.95,5.55,2.8,6.35a.19.19,0,0,0,0,.08,12.85,12.85,0,0,1-.54,1.93c-.11.28-1.52,4.8-1.52,4.8l-2.47,4.2-1.85,1.25-1.42-.94-.93-2-.52-2.55s-.2-5.6-.2-5.63c0-.24.08-.48.09-.73a1,1,0,0,0,0-.38.14.14,0,0,0,0-.06,1.42,1.42,0,0,0-.25-.46.82.82,0,0,0-.84-.2,27.77,27.77,0,0,1-3.11.56,27.26,27.26,0,0,1-2.1-2.26,5.11,5.11,0,0,1-.64-2.88,2.62,2.62,0,0,1,.15-.39v0c.16-.35,1.64-2,1.94-2.69.24-.55,2.46-1.19,3-1.43l2.74,1.7a1.5,1.5,0,0,0,1.44.09c.86-.42,1.74-.81,2.58-1.28a2.85,2.85,0,0,0,1.67-2.86c-.16-1.38-3-3.19-3.36-3.06-.73.27-.84.68-.41,1.31l.17.23a4,4,0,0,1,.49.67,1.22,1.22,0,0,1,.12.93c-.09.33-5.8,1.22-6,1.33a1.69,1.69,0,0,1-1.15-1.78c.46-2.85,2.76-8,2.63-7.84l-1.32-.83a3.77,3.77,0,0,1,.4-2.26v0l0-.06a9.59,9.59,0,0,1,2.08-2.33,3.74,3.74,0,0,1,1.89-.54s4.58.9,4.58.43a2.57,2.57,0,0,1,.06-1.21A8.19,8.19,0,0,1,51,47.59l1-.14.29.54s0,3.74,0,3.79,1,.2,1.1.12a21.64,21.64,0,0,1,2.24-2.34,2.31,2.31,0,0,0,1.13-.19,8.4,8.4,0,0,0,.82-2.29l1.61.22a41.45,41.45,0,0,1,2.8,4l.53-7.46L55,36.31l-9.92-4.45L34.47,30.49,24,32.48,14,36.42,6.8,43.86l-5.56,10L0,64.6l1.8,12,5.88,9L14.5,92.1l10.09,5.62,9.88.83L45.32,98l9.58-5.27,6.84-7.38ZM22.36,38.05l8.28,1.84-5.2,1.3-3.08.54s-2.83-1-3.07-1.62S22.36,38.05,22.36,38.05ZM29.82,82.6l-4.5,6.5-.71,4.61-.9.41-2.13-3.65v-.94l.3-4.79c.06-.88-1.6-4.58-1.6-4.58l-1.4-2.69-1.63-4a33.17,33.17,0,0,1-3.48-1.66c-1.44-.87-4.1-5.32-4.39-6.24a2.86,2.86,0,0,1,.21-1.5L10,60.66,6.57,55.32a20.59,20.59,0,0,1-3,1.17L3.67,54a57.61,57.61,0,0,1,3.67-6.08l2.25-.19.4.41c.37.41.75.81,1.12,1.23l3.18.15c1-.84,4.19-3.78,5.06-4.1a21,21,0,0,1,3.31-.88c1.14-.24,8.06-1.48,8.06-1.48l.37,1.63s-1.06.82-1.64,1.16c-1.29.76-3.83,2.33-3.83,2.33l-.05,2.62,2.32,3.88-2,.84-2.17-1.26L18.69,57.4,19.15,59l3.61-1.05,2.65.41a9.26,9.26,0,0,1,1.92,2.8,1.31,1.31,0,0,1-.88,1.64c-.48.15-5.37,4-7,4.5-.42.14-1.22.49-1.22.49l1,3.26L26,74.22l.59.81,0,1a2.66,2.66,0,0,0,1.73,1,11,11,0,0,1,2.33.6l1.22,1.2Z"/><polygon class="cls-2" points="80.29 71.65 79.46 69.28 77.67 67.48 75.41 66.47 75.44 62.41 75.31 46.77 75.07 41.36 75.11 34.8 70.57 34.93 70.84 41.89 70.56 56.39 70.67 61.45 70.66 66.55 70.46 66.59 68.12 67.5 66.45 69.23 65.16 71.55 64.87 74.06 65.29 76.86 66.65 78.94 68.24 80.45 70.58 81.76 72.89 81.95 75.41 81.82 77.63 80.59 79.34 78.75 80.46 76.52 80.93 74.06 80.29 71.65"/></g></g></svg>