<?xml version="1.0" encoding="utf-8"?>
<!-- Generator: Adobe Illustrator 26.2.1, SVG Export Plug-In . SVG Version: 6.00 Build 0)  -->
<svg version="1.1" id="a" xmlns="http://www.w3.org/2000/svg" xmlns:xlink="http://www.w3.org/1999/xlink" x="0px" y="0px"
	 viewBox="0 0 92 142.9" style="enable-background:new 0 0 92 142.9;" xml:space="preserve">
<style type="text/css">
	.st0{fill:#FFC20E;}
	.st1{fill:#F0EDE8;}
	.st2{fill:#DDDCCB;}
	.st3{fill:#000101;}
</style>
<g>
	<polygon class="st0" points="60.3,37.7 32.4,38 23.6,38.6 18.8,38.7 18.6,34.1 55.2,33 56.4,32.5 60.2,32.4 	"/>
	<polygon class="st0" points="18.9,41.9 60.6,40.6 60.7,43.4 19,44.8 	"/>
	<polygon class="st1" points="20.4,67.8 32,68.1 40.6,67.8 51.6,67.8 51.6,83.9 38,83.8 29.7,83.8 20.6,83.8 20.4,78.4 20.2,71.3 	
		"/>
	<polygon class="st2" points="19.3,49.4 52.3,49.1 52.4,54.3 19.5,54.6 	"/>
	<polygon class="st2" points="19.8,58.6 47,58.3 47.2,63.5 19.9,63.8 	"/>
	<rect x="20.9" y="87.7" class="st2" width="32.7" height="2.3"/>
	<rect x="20.9" y="93" class="st2" width="32.7" height="2.3"/>
</g>
<g>
	<path class="st3" d="M30,22.9c0-0.2-0.2-0.3-0.7-0.4s-1.1-0.4-1.1-1s0.5-1,1.3-1c0.5,0,1,0.1,1.3,0.3l-0.2,0.7
		c-0.3-0.2-0.8-0.3-1.1-0.3S29,21.3,29,21.5c0,0.2,0.3,0.3,0.7,0.4c0.5,0.1,1.1,0.4,1.1,1S30.3,24,29.4,24c-0.5,0-1-0.1-1.3-0.3
		l0.2-0.7c0.3,0.2,0.8,0.3,1.2,0.3C29.8,23.3,30,23.1,30,22.9L30,22.9z"/>
	<path class="st3" d="M32.6,24c-0.8,0-1.3-0.5-1.3-1.3s0.6-1.4,1.4-1.4s1.3,0.5,1.3,1.3S33.4,24,32.6,24L32.6,24z M32.6,21.9
		c-0.3,0-0.5,0.3-0.5,0.7s0.2,0.7,0.5,0.7s0.5-0.3,0.5-0.7S33,21.9,32.6,21.9L32.6,21.9z"/>
	<path class="st3" d="M34.5,23.9v-3.6l0.8-0.1v3.7H34.5z"/>
	<path class="st3" d="M36.3,21c-0.3,0-0.5-0.2-0.5-0.5S36,20,36.3,20s0.5,0.2,0.5,0.5S36.7,21,36.3,21z M35.9,23.9v-2.5l0.8-0.1v2.6
		H35.9L35.9,23.9z"/>
	<path class="st3" d="M39,20.3l0.8-0.1v3.7H39v-0.3c-0.2,0.2-0.4,0.3-0.7,0.3c-0.6,0-1.1-0.5-1.1-1.3s0.6-1.4,1.3-1.4
		c0.2,0,0.4,0,0.5,0.1V20.3L39,20.3z M38.7,21.9c-0.3,0-0.6,0.3-0.6,0.7s0.2,0.7,0.5,0.7c0.2,0,0.3-0.1,0.4-0.2V22
		C39,21.9,38.8,21.9,38.7,21.9L38.7,21.9z"/>
	<path class="st3" d="M41.9,23.6c-0.2,0.2-0.4,0.4-0.7,0.4c-0.4,0-0.8-0.3-0.8-0.7c0-0.5,0.4-0.9,1.5-0.9l0,0c0-0.3-0.1-0.4-0.4-0.4
		c-0.3,0-0.6,0.1-0.9,0.3l-0.2-0.6c0.3-0.1,0.7-0.3,1.2-0.3c0.9,0,1.2,0.4,1.2,1.1v0.7c0,0.2,0,0.2,0.2,0.2L42.9,24
		C42.3,24,42,23.8,41.9,23.6L41.9,23.6L41.9,23.6z M41.9,22.8c-0.5,0.1-0.7,0.2-0.7,0.4c0,0.2,0.1,0.3,0.3,0.3s0.3-0.1,0.4-0.2V22.8
		L41.9,22.8z"/>
	<path class="st3" d="M44.2,23.9h-0.8v-2.5l0.8-0.1v0.4c0.2-0.3,0.3-0.4,0.6-0.4c0.1,0,0.3,0,0.4,0.1L45,22.1
		c-0.1,0-0.2-0.1-0.3-0.1c-0.2,0-0.4,0.1-0.6,0.4L44.2,23.9L44.2,23.9z"/>
	<path class="st3" d="M45.9,21c-0.3,0-0.5-0.2-0.5-0.5s0.2-0.5,0.5-0.5s0.5,0.2,0.5,0.5S46.2,21,45.9,21z M45.4,23.9v-2.5l0.8-0.1
		v2.6H45.4L45.4,23.9z"/>
	<path class="st3" d="M48.6,20.3l0.8-0.1v3.7h-0.8v-0.3c-0.2,0.2-0.4,0.3-0.7,0.3c-0.6,0-1.1-0.5-1.1-1.3s0.6-1.4,1.3-1.4
		c0.2,0,0.4,0,0.5,0.1L48.6,20.3L48.6,20.3z M48.2,21.9c-0.3,0-0.6,0.3-0.6,0.7s0.2,0.7,0.5,0.7c0.2,0,0.3-0.1,0.4-0.2V22
		C48.5,21.9,48.3,21.9,48.2,21.9L48.2,21.9z"/>
	<path class="st3" d="M51.4,23.6C51.2,23.8,51,24,50.7,24c-0.4,0-0.8-0.3-0.8-0.7c0-0.5,0.4-0.9,1.5-0.9l0,0c0-0.3-0.1-0.4-0.4-0.4
		s-0.6,0.1-0.9,0.3l-0.2-0.6c0.3-0.1,0.7-0.3,1.2-0.3c0.9,0,1.2,0.4,1.2,1.1v0.7c0,0.2,0,0.2,0.2,0.2L52.4,24
		C51.8,24,51.5,23.8,51.4,23.6L51.4,23.6L51.4,23.6z M51.4,22.8c-0.5,0.1-0.7,0.2-0.7,0.4c0,0.2,0.1,0.3,0.3,0.3
		c0.2,0,0.3-0.1,0.4-0.2L51.4,22.8L51.4,22.8z"/>
	<path class="st3" d="M54.5,20.3l0.8-0.1v3.7h-0.8v-0.3c-0.2,0.2-0.4,0.3-0.7,0.3c-0.6,0-1.1-0.5-1.1-1.3s0.6-1.4,1.3-1.4
		c0.2,0,0.4,0,0.5,0.1L54.5,20.3L54.5,20.3z M54.1,21.9c-0.3,0-0.6,0.3-0.6,0.7s0.2,0.7,0.5,0.7c0.2,0,0.3-0.1,0.4-0.2V22
		C54.4,21.9,54.3,21.9,54.1,21.9L54.1,21.9z"/>
	<path class="st0" d="M55.4,24.6L55.4,24.6c-0.9,0-5,0-10.3,0.2c-3.1,0.1-6,0.2-8.7,0.4c-3.3,0.2-6.2,0.5-8.7,0.8l0,0l0,0l-0.2,0.7
		v0.1l0,0c2.6-0.4,5.6-0.7,9.1-1c2.8-0.2,5.8-0.5,9-0.6c5.5-0.3,9.6-0.4,9.7-0.4h0.1V24.6L55.4,24.6z"/>
</g>
<path class="st0" d="M92,134.4l-2.2-11l-0.8-30l-4.4-16.2l-9.9-10.4l0.5,18.9l3.6,11l-2.5,1.9l-5.5-16.8c0,0-4.4-8.2-4.7-9.1
	c-0.3-0.8-1.9-13.2-1.9-13.2l-5.8-6l-5.8,6.6l2.2,16.2l3.3,7.7L57,104.9l2.5,11.3l-21.1,0.6l13.2,11l13.2,6.6l3.3,8.5L92,134.4z"/>
<polygon class="st0" points="9,92.3 9.6,101.2 3.3,98.8 2.4,98.6 3,95 "/>
<polygon class="st0" points="9.3,90.4 8.8,79.7 1.4,81.6 0,87.9 1.9,90.2 "/>
<polygon points="9.5,5.1 10.3,69.2 12,98.6 12.5,106.6 16.1,112.9 54.8,112.6 53.2,100.6 15.8,100 14.7,65.7 14.2,12.9 65,11.2 
	67.3,56 67.8,68.2 72,77.3 70.8,26.4 70.5,4.1 66.1,0 13.6,1.3 "/>
<polygon class="st0" points="7.9,61.9 7.6,51.8 3,51.3 2.1,59.3 "/>
</svg>
