<?xml version="1.0" encoding="UTF-8"?><svg id="a" xmlns="http://www.w3.org/2000/svg" viewBox="0 0 144 144"><defs><style>.b{fill:#000101;}.c{fill:#f0ede8;}.d{fill:#fc0;}.e{fill:#dddccb;}</style></defs><g><polygon points="28.55 69.76 28.91 52.27 28.51 36.29 31.41 30.81 37.68 29.64 105.51 29.52 114.53 30.17 118.41 32.98 119.04 69.79 117.75 71.73 112.6 71.08 109.38 75.91 109.19 42.73 106.93 40.48 99.7 39.72 39.14 39.83 37.86 42.41 38.5 72.69 38.43 77.41 33.35 71.4 28.55 69.76"/><path d="M38.17,89.61v10.15l34.25-.52,36.07-.52,.26-8.86H41.8c-.78,0-3.63-.26-3.63-.26Z"/><polygon class="d" points="116.53 75.34 113.41 77.41 113.67 84.94 113.41 97.65 113.93 102.32 118.6 110.37 120.68 116.59 119.96 121.56 134.17 120.23 132.87 114 131.32 107.25 131.58 97.39 132.1 90.91 130.8 85.46 124.57 78.71 120.94 76.64 121.72 82.86 123.53 91.43 123.79 95.06 121.98 95.32 121.2 89.35 119.64 80.79 118.86 77.16 116.53 75.34"/><polygon class="d" points="30.52 75.34 33.63 77.41 33.37 84.94 34.17 97.41 33.65 102.09 28.44 110.37 26.37 116.59 26.69 121.85 13.46 118.48 14.17 114 15.73 107.25 15.47 97.39 14.95 90.91 16.25 85.46 22.48 78.71 26.11 76.64 25.33 82.86 23.51 91.43 23.25 95.06 25.07 95.32 25.85 89.35 27.41 80.79 28.18 77.16 30.52 75.34"/><polygon class="d" points="103.3 61.62 60.33 61.13 51.09 61.38 43.62 61.38 43.62 57.75 95.63 57.75 97.61 57.42 103.47 57.42 103.3 61.62"/><rect class="d" x="43.62" y="63.89" width="59.94" height="2.27"/><polygon class="c" points="63.66 69.43 72.37 69.7 80.95 69.43 84.64 69.43 84.64 85.53 78.44 85.4 70.12 85.4 63.79 85.4 63.66 79.99 63.39 72.86 63.66 69.43"/><rect class="e" x="43.86" y="69.83" width="14.78" height="4.09"/><rect class="e" x="43.86" y="80.39" width="14.78" height="4.09"/><rect class="e" x="89.13" y="69.83" width="14.78" height="4.09"/><rect class="e" x="89.13" y="76.61" width="14.78" height="2.33"/><rect class="e" x="89.13" y="81.93" width="14.78" height="2.33"/></g><g><path class="b" d="M62.04,48.54c0-.23-.25-.31-.7-.43-.5-.14-1.1-.37-1.1-1.05,0-.63,.46-1.05,1.31-1.05,.53,0,.95,.12,1.28,.3l-.17,.71c-.34-.18-.76-.3-1.1-.3-.3,0-.45,.1-.45,.29,0,.22,.31,.31,.72,.43,.52,.14,1.07,.38,1.07,1.03s-.5,1.11-1.4,1.11c-.51,0-1-.13-1.32-.31l.16-.72c.34,.18,.75,.32,1.17,.32,.31,0,.52-.11,.52-.32Z"/><path class="b" d="M64.63,49.57c-.76,0-1.35-.48-1.35-1.34s.61-1.36,1.38-1.36,1.34,.49,1.34,1.34-.62,1.36-1.38,1.36Zm.01-2.06c-.34,0-.52,.28-.52,.71s.19,.7,.53,.7,.52-.27,.52-.71-.19-.71-.53-.71Z"/><path class="b" d="M66.47,49.49v-3.61l.84-.1v3.71h-.84Z"/><path class="b" d="M68.35,46.59c-.31,0-.5-.16-.5-.45s.19-.45,.5-.45,.5,.16,.5,.45-.19,.45-.5,.45Zm-.42,2.9v-2.49l.84-.1v2.6h-.84Z"/><path class="b" d="M71.05,45.89l.84-.1v3.71h-.84v-.26c-.16,.16-.39,.34-.71,.34-.63,0-1.09-.51-1.09-1.32s.59-1.38,1.27-1.38c.19,0,.37,.03,.52,.09v-1.08Zm-.39,1.62c-.35,0-.57,.29-.57,.71s.22,.69,.53,.69c.19,0,.32-.07,.43-.17,0,.01,0-1.11,0-1.11-.09-.07-.23-.11-.39-.11Z"/><path class="b" d="M73.86,49.19c-.18,.21-.38,.39-.73,.39-.44,0-.77-.31-.77-.7,0-.48,.36-.87,1.5-.9v-.05c0-.27-.14-.39-.45-.39-.26,0-.57,.11-.86,.26l-.17-.62c.27-.14,.69-.3,1.17-.3,.88,0,1.17,.4,1.16,1.11v.73c0,.17,.03,.19,.2,.21l-.08,.6c-.55,.07-.82-.08-.94-.35l-.02,.02Zm0-.82c-.52,.06-.71,.16-.71,.38,0,.16,.13,.27,.32,.27,.17,0,.31-.07,.39-.17v-.49Z"/><path class="b" d="M76.19,49.49h-.84v-2.49l.84-.1v.37c.15-.26,.34-.39,.61-.39,.14,0,.28,.03,.42,.1l-.17,.74c-.1-.05-.21-.08-.32-.08-.21,0-.39,.1-.55,.37v1.48Z"/><path class="b" d="M77.87,46.59c-.31,0-.5-.16-.5-.45s.19-.45,.5-.45,.5,.16,.5,.45-.19,.45-.5,.45Zm-.42,2.9v-2.49l.84-.1v2.6h-.84Z"/><path class="b" d="M80.56,45.89l.84-.1v3.71h-.84v-.26c-.16,.16-.39,.34-.71,.34-.63,0-1.09-.51-1.09-1.32s.59-1.38,1.27-1.38c.19,0,.37,.03,.52,.09v-1.08Zm-.39,1.62c-.35,0-.57,.29-.57,.71s.22,.69,.53,.69c.19,0,.32-.07,.43-.17,0,.01,0-1.11,0-1.11-.09-.07-.23-.11-.39-.11Z"/><path class="b" d="M83.38,49.19c-.18,.21-.38,.39-.73,.39-.44,0-.77-.31-.77-.7,0-.48,.36-.87,1.5-.9v-.05c0-.27-.14-.39-.45-.39-.26,0-.57,.11-.86,.26l-.17-.62c.27-.14,.69-.3,1.17-.3,.88,0,1.17,.4,1.16,1.11v.73c0,.17,.03,.19,.2,.21l-.08,.6c-.55,.07-.82-.08-.94-.35l-.02,.02Zm0-.82c-.52,.06-.71,.16-.71,.38,0,.16,.13,.27,.32,.27,.17,0,.31-.07,.39-.17v-.49Z"/><path class="b" d="M86.53,45.89l.84-.1v3.71h-.84v-.26c-.16,.16-.39,.34-.71,.34-.63,0-1.09-.51-1.09-1.32s.59-1.38,1.27-1.38c.19,0,.37,.03,.52,.09v-1.08Zm-.39,1.62c-.35,0-.57,.29-.57,.71s.22,.69,.53,.69c.19,0,.32-.07,.43-.17,0,.01,0-1.11,0-1.11-.09-.07-.23-.11-.39-.11Z"/><path class="d" d="M87.38,50.17h-.1c-.77,0-4.89,0-10.21,.18-3.08,.1-5.98,.23-8.65,.4-3.28,.21-6.21,.46-8.69,.76h-.03v.04l-.16,.77v.07h.05c2.58-.38,5.65-.72,9.12-1.02,2.77-.24,5.81-.45,9.02-.62,5.47-.3,9.61-.4,9.65-.41h.05v-.17h-.05Z"/></g></svg>