<svg xmlns="http://www.w3.org/2000/svg" viewBox="0 0 145 157.11"><defs><style>.cls-1{fill:#040000;}.cls-2{fill:#ffc913;}</style></defs><g id="Layer_2" data-name="Layer 2"><g id="Layer_2-2" data-name="Layer 2"><path class="cls-1" d="M139.65,138.78l-5.58-6L123.42,120.6l-5.85-7.12-5-8.4-.36-8,2.68-40.37-1.48-34.44-.28-9.57-4.55-.57-33-4-36-4.57-1,.52c0,.35.05.69.07,1a20,20,0,0,1-.1,3.1l2.54,8.05V33.24H22.89l-9.82-2.8A25,25,0,0,1,5.3,29.1l-.66.61.52,33.83L6.4,99.11l.63,49,0,3,56.06,6.07,37.59-.12,4.06-1,2.28-3.22,4-14.09,13.81.75,13.6,3.09,6.49,1.84Z"/><path class="cls-2" d="M135,135.31l-5.6-6-10.63-12.16L112.93,110l-5-8.4-.34-8,2.68-40.37L108.8,18.75l-.18-6.67-.09-2.9L71,4.58,35.05,0,19.25,8.48,0,26.23.52,60.07,1.76,95.64l.65,51.93,4.62.5,51.45,5.57,37.58-.12,4.07-1,2.27-3.23,4.06-14.08,13.81.75,13.6,3.07,6.49,1.86ZM41.23,33.24H22.89l-17.47-5,9-9.28L28.31,8l7.78-4.55,5.14,12.71Z"/><polygon class="cls-1" points="49.51 118.02 53.46 112.02 58.7 111 65.09 111.56 69.74 115.67 70.18 118.25 70.09 124.08 68.78 127.5 65.6 131.17 59.11 131.88 53.14 129.75 50.17 125.69 49.56 121.55 49.51 118.02 49.51 118.02"/><path class="cls-1" d="M86.63,59l-1.43-4.2c-2.23-2-9-8.87-11.07-10.8l-8.72-1.75-6.6,0-6.24.6c-2.55,1.32-5.48,1.93-7.71,3.78A33,33,0,0,0,36.68,60c-.88,2.78-.55,10.08-.44,13l2.11,8.19,5.82,3.56,4.71,5.12,6.22,2.66-1.74-1.86-.85-2.14-1.19-4.09.43-4.06,1.63-3.52,1.26-3.35-.18-2.64L52.77,68.6l-2.63.94-1.32,2.6V65.45L53,59.31l2.35-1.4,2.66-1.19,3-.34h2.51l3.55.69,3.58,2.37,3,3.89,1.08,2.36.78,2.22v2.72l-.66,2.93-1.42,3.55-2,2.34,0-1.18,0-1.16-.59-1-.67,1.86-1,1.6-2.59,2.24-3.74,1.74L59,86.67l-2.38,3.56L56.12,93l.31.13-2,10.18c1.23.13,11.29,1.08,12.23.94l2.92-.77,2-7.49,2.63-1.91c.82-2.52,3.07-4.82,4.65-7,2.39-3.52,5.52-6.58,7.62-10.28.87-3.5,1-7.2,1.52-10.77C88.61,63.54,87.33,61.38,86.63,59Z"/></g></g></svg>