<svg id="Layer_1" data-name="Layer 1" xmlns="http://www.w3.org/2000/svg" viewBox="0 0 150 150"><defs><style>.cls-1{fill:#070606;}.cls-2{fill:#ffbf00;}</style></defs><polygon class="cls-1" points="72.57 56.87 69.78 52.52 66.36 49.41 66.36 45.06 69.47 40.4 77.03 36.05 80.96 31.08 85.93 27.97 91.84 33.56 97.43 41.02 103.33 46.92 107.06 53.14 109.23 56.87 106.44 61.84 102.71 64.32 98.36 68.36 93.08 72.43 89.66 74.58 86.55 74.58 79.72 66.81 72.57 56.87"/><polygon class="cls-1" points="18.82 89.49 30.32 84.21 37.15 77.37 48.03 72.43 56.11 67.12 62.01 64.63 66.36 59.97 72.57 56.87 77.03 64.32 63.25 76.13 52.69 89.49 40.57 97.26 34.05 105.33 24.1 110.93 16.03 112.48 11.05 109.06 7.02 101.3 11.05 96.01 18.82 89.49"/><polygon class="cls-2" points="103.02 72.43 87.8 81.1 87.8 84.67 89.97 89.8 95.41 91.66 101.47 84.67 107.68 84.67 112.03 80.48 117.31 74.58 122.59 72.43 124.77 66.5 121.66 63.08 118.87 60.28 109.23 65.88 103.02 72.43"/><polygon class="cls-2" points="69.47 33.25 77.03 27.97 83.76 21.76 83.76 15.23 80.65 9.95 74.13 13.37 63.56 21.6 56.73 25.49 51.76 31.7 48.65 33.25 51.76 37.91 55.48 41.64 60.77 39.78 69.47 33.25"/><polygon class="cls-2" points="102.61 106.7 91.27 105.98 80.48 106.58 76.01 108.04 71.29 113.51 71.76 119.54 104.17 120.14 114.01 121.52 122.73 119.75 144.47 120.08 144.41 113.13 141.45 110.06 138.06 107.92 102.61 106.7"/><polygon class="cls-2" points="85.83 99.68 96.52 99.68 110.87 99.68 120.16 99.68 128.04 99.68 131.84 101.23 133.95 102.64 134.65 104.75 134.65 107.14 91.46 105.65 82.31 108.13 81.6 104.89 82.73 102.08 85.83 99.68"/></svg>