<svg xmlns="http://www.w3.org/2000/svg" viewBox="0 0 96.7 58.43"><defs><style>.cls-1{fill:#231f20;}.cls-2{fill:#ffc20e;}.cls-3{fill:#fff;}</style></defs><g id="Layer_2" data-name="Layer 2"><g id="Laag_1" data-name="Laag 1"><polygon class="cls-1" points="96.7 51.59 86.97 51.97 76.68 52.59 66.44 54.11 56.76 54.28 46.78 54.98 35.51 55.24 25.24 56.38 11.72 58.39 4.38 58.43 1.51 9.8 11.6 9.23 21.82 7.54 32.05 6.96 42.38 5.8 52.67 5.19 64.69 5.09 74.68 4.52 83.07 4.24 94.04 3.06 96.7 51.59"/><polygon class="cls-2" points="94.4 49.47 84.47 49.17 73.96 49.07 63.44 49.87 53.58 49.37 43.37 49.37 31.88 48.85 21.36 49.27 7.47 50.33 0 49.85 0.53 1.14 10.84 1.28 21.35 0.3 31.8 0.44 42.39 0 52.91 0.11 65.14 0.85 75.35 0.97 83.9 1.28 95.14 0.87 94.4 49.47"/><path class="cls-3" d="M4.45,4l4.64.35L22.45,4s-2,5-2.55,5.39-5,4.54-5,4.54L12.1,16.08l-2.55,2L5.3,19.2,3,19.34Z"/><path class="cls-3" d="M91.58,4.31,78.91,3.62l-6.22.44s2,4.9,2.53,5.32,4.9,4.48,4.9,4.48l2.8,2.1,2.52,2L89.64,19l2.24.14-.47-9Z"/><path class="cls-3" d="M3.27,47.34l5.93.3,12.46-.42S20.51,42.88,20,42.45s-4.64-5.74-4.64-5.74L12.1,35.05,9.55,33.31,5.3,32.17,3,32Z"/><path class="cls-3" d="M91.58,47.06l-12.67.69-6.22-.43s2-4.9,2.53-5.32,4.9-4.49,4.9-4.49l2.8-2.1,2.52-2,4.2-1.12,2.24-.14-.47,9Z"/><polygon class="cls-3" points="62 20.96 60.33 16.19 56.72 12.56 52.07 10.48 47.1 9.84 42.21 10.77 37.51 12.62 34.15 16.1 31.55 20.75 30.96 25.8 31.81 31.44 34.56 35.63 37.75 38.67 42.47 41.3 47.1 41.69 52.17 41.42 56.65 38.96 60.09 35.25 62.34 30.76 63.28 25.8 62 20.96"/><polygon class="cls-1" points="38.43 23.18 41.91 22.88 49.17 23.2 51.7 23.07 55.08 23.09 55.11 22.57 55.24 20.16 55.37 17.7 52.18 17.65 44.35 17.8 41.65 18.07 38.2 17.74 38.43 23.18"/><polygon class="cls-1" points="55.14 27.63 51.66 27.94 44.4 27.61 41.87 27.74 38.49 27.73 38.46 28.24 38.33 30.65 38.53 31.76 38.2 33.11 41.39 33.16 49.22 33.01 51.92 32.75 55.37 33.07 55.14 27.63"/></g></g></svg>