<svg xmlns="http://www.w3.org/2000/svg" viewBox="0 0 54.47 77.33"><defs><style>.cls-1{fill:#ffc20e;}.cls-2{fill:#231f20;}</style></defs><g id="Layer_2" data-name="Layer 2"><g id="Laag_1" data-name="Laag 1"><polygon class="cls-1" points="12.74 29.39 16.35 29.07 23.86 29.41 26.49 29.27 29.99 29.29 30.02 28.76 30.15 26.26 30.29 23.72 26.98 23.66 18.88 23.82 16.07 24.09 12.51 23.75 12.74 29.39"/><polygon class="cls-2" points="30.05 34 26.44 34.32 18.93 33.98 16.3 34.12 12.8 34.1 12.77 34.63 12.64 37.13 12.84 38.27 12.51 39.67 15.81 39.73 23.91 39.57 26.72 39.3 30.29 39.64 30.05 34"/><polygon class="cls-1" points="53.95 14.22 54.28 9.25 54.11 6.57 54.36 0.04 47.83 0.29 45.15 0.12 41.56 0.49 36.33 0 32.59 0.07 32.97 1.77 33.14 3.17 33.01 4.9 32.89 6.19 32.92 6.84 35.92 6.74 39.5 6.9 43.25 6.73 36.12 13.34 33.93 15.71 30.66 12.59 19.78 11.3 12.36 11.43 7.03 15.72 0 27.17 0.64 31.81 7.25 31.81 6.86 27.31 12.77 18.82 21.91 16.93 34.36 22.29 36.66 31.81 42.93 31.81 42.69 24.04 38.73 20.27 41.25 17.34 45.62 13.43 47.66 11.15 47.5 14.9 47.73 16.46 47.7 21.62 48.35 21.65 49.64 21.53 51.38 21.8 52.77 21.57 54.47 21.95 54.48 20.23 53.95 14.22"/><polygon class="cls-2" points="43.02 34.84 42.93 31.81 36.66 31.81 37.29 34.38 30.19 44.59 23.61 48.35 17.7 46.08 8 40.44 7.25 31.81 0.64 31.81 1.91 41.01 10.91 50.83 18.11 52.38 18.59 59.53 18.53 60.71 17.58 60.68 13.69 60.84 8.49 60.82 8.45 61.47 8.61 62.76 8.26 64.5 8.55 65.89 8.05 67.59 12.96 67.66 18.32 67.14 18.59 72.04 18.18 77.33 25.02 76.99 24.64 70.58 24.74 67.45 24.99 67.46 29.15 67.13 34.44 67.54 34.1 60.7 28.74 61.08 24.96 60.95 25.04 58.64 24.88 53.96 24.88 53.27 37.82 47.1 43.02 34.84"/></g></g></svg>