<?xml version="1.0" encoding="utf-8"?>
<!-- Generator: Adobe Illustrator 25.2.0, SVG Export Plug-In . SVG Version: 6.00 Build 0)  -->
<svg version="1.1" id="Layer_1" xmlns="http://www.w3.org/2000/svg" xmlns:xlink="http://www.w3.org/1999/xlink" x="0px" y="0px"
	 viewBox="0 0 593.53 595.28" style="enable-background:new 0 0 593.53 595.28;" xml:space="preserve">
<style type="text/css">
	.st0{fill:#FFCB04;}
	.st1{fill:#231F20;}
</style>
<path class="st0" d="M532.31,250.64l-57.69-98.45l-96.83-60.36l-113.8-8.45l-57.78,25.06l25.38,28.77l4.42,3.7l84.92-10.8
	l85.68,31.94l61.03,68.09l22.38,88.66l-21.38,88.91l-60.24,68.79l-85.32,32.91l-90.84-10.51l-75.55-51.51l-42.96-80.73l-0.52-91.44
	l11.49-22.21l-10.14-10.04l-23.36-29.7l-3.51,4.36l-22.1,111.95l32.46,109.4l79.58,81.78l108.47,35.43l112.51-19.03l90.77-69.14
	l48.25-103.4L532.31,250.64z"/>
<path class="st0" d="M446.87,276.25l-36.32-61.99l-60.97-38l-71.65-5.31l-14.67,6.36l0.42,1.01v41.17l7.95,7.09l40.01-5.09
	l44.41,16.55l31.63,35.29l11.6,45.96l-11.08,46.08l-31.23,35.66l-44.22,17.06l-47.09-5.45l-39.15-26.7l-22.26-41.85l-0.27-47.39
	l4.45-8.58l-6.21-6.29h-40.47l-8.71,44.12l20.44,68.87l50.09,51.49l68.29,22.31l70.83-11.98l57.15-43.53l30.38-65.1L446.87,276.25z"
	/>
<path class="st1" d="M201.21,133.06l-31.56-35.77l-57.58-44.32l-4.26,33.89l0.93,32.12l-33.67,4.02l-35.36,1.28l48.42,48.47
	l27.51,34.99l33.84,33.52h56.31l28.07,28.48l40.2,44.22l21.35,16.92l0.3,0.2h21.6l0.51-22.1l-0.2-0.3l-28.99-26.38l-33.67-39.2
	l-26.97-24.05v-56.31l-4.6-11.1L201.21,133.06z"/>
</svg>
