<svg xmlns="http://www.w3.org/2000/svg" viewBox="0 0 116.23 63.57"><defs><style>.cls-1{fill:#ffc20e;}.cls-2{fill:#231f20;}</style></defs><g id="Layer_2" data-name="Layer 2"><g id="Laag_1" data-name="Laag 1"><path class="cls-1" d="M16.77,39.63c1.92.55,3.25,1,5.14,1.66a.84.84,0,0,0,1.19-.44,10.32,10.32,0,0,1,2.19-1.79,5.31,5.31,0,0,1,2-.7,14.27,14.27,0,0,1,3.1.9,17.54,17.54,0,0,1,2.81,1.86c.32.26.49.2.75-.08.62-.67,1.92-1.95,1.92-1.95l2.5-.85,1.54.28s3.3,1.14,4,3c.11.32.31.33.6.19.58-.3,1.18-.57,1.78-.84a9.21,9.21,0,0,1,2.9-.39l5.47,3.69s.67.94,1.32,1c2.08.21,3.95,2.18,5.3,3.71,1.57,1.77,2,3.8.55,6a5.32,5.32,0,0,0-.37.66.62.62,0,0,0,.13.7,2.71,2.71,0,0,0,3.65.2,8.36,8.36,0,0,0,2.33-3.63,2.25,2.25,0,0,0-.57-2.46,8.15,8.15,0,0,0-2-1.39,6.81,6.81,0,0,1-1.6-1c-.34-.35-.24-.63.24-.72a1.56,1.56,0,0,1,.85.15,24.9,24.9,0,0,1,4,2.06c1.16.67,2.18,1.28,2.18,1.28l2.67-.45L75.48,46l-.57-1.51a10.81,10.81,0,0,0-2-1.56,33,33,0,0,1-3.61-2.71l7.52,3.3,2.48-.25,2.9-3.41.07-2.2s-5.83-4-7.26-4.9a1.69,1.69,0,0,1-.44-.68l2.42.79,6.11,3.22,3.24-1.39,2.21-4.36-2.19-2S78,24.29,74,22c-4.57-2.63-8.85-4.74-13.54-7.15a18.64,18.64,0,0,1-2.31,4.21c-1,1-4,7-4,7l-3.39,2.27c-2.7-.2-7.67-2.1-7.67-2.1l-2.16-3,0-2.54L43.54,8.13l1.6-2.19,3.73-3.58,0-.7L40.41,5.41,31,11a2.55,2.55,0,0,1-1.06.11L27,10.67l-.55,5ZM96.06,29.8l-3.2-16.4L90.22,7.34C85,8.72,85.09,8.51,79.83,9.9a2.88,2.88,0,0,1-2.47-.39C72.2,6.36,59.29,0,59,0H55.57a1.26,1.26,0,0,0-.75.23A50.34,50.34,0,0,0,47.5,7.1l-2,3.17-1.23,6-.52,6.3,2,3.05,4,.51,3-2.25,4.46-7.79,2-4,1.11-.94c5.47,3,11.14,6,16.55,9.12,3.75,2.18,13.32,7.49,13.32,7.49l.49,4-3.23,4.88a5,5,0,0,1-1.9,1.16c-.16,0-.31,0-.3.27,0,1-.06,1.9,0,2.84,0,.31.2.38.48.29l1.35-.37c4.53-1.2,5-1.16,9.52-2.49ZM47.64,42.6l-2.19,1.31s-3,5.58-4.5,8.4a14.68,14.68,0,0,0-1.07,2.44,1.57,1.57,0,0,0,.5,1.83,17,17,0,0,0,4.31,2.49.52.52,0,0,0,.66-.18A20.53,20.53,0,0,0,46.81,57,101.48,101.48,0,0,0,53,47a2.53,2.53,0,0,0,.15-.93l-3.54-3.29Zm5.72,21a1.86,1.86,0,0,0,1.89-.78c.34-.54.72-1,1-1.6A49.36,49.36,0,0,0,60.2,53a2.54,2.54,0,0,0-.38-2.52,5.31,5.31,0,0,0-3.73-2.13,1.72,1.72,0,0,0-1.85.88c-1.05,1.68-2.08,3.36-3.08,5.07s-2,3.32-2.81,5.09a2,2,0,0,0,.8,2.81A10,10,0,0,0,53.36,63.57ZM37,54A2.51,2.51,0,0,0,39,52.67a52.28,52.28,0,0,0,3.73-7.5l-.56-2.48-4.68-1.85a1.47,1.47,0,0,0-.8.43c-1.15,1.75-1.88,3.28-3,5-.6.91-1.18,1.82-1.72,2.76a2.45,2.45,0,0,0,.38,2.8A9.09,9.09,0,0,0,37,54ZM28,40.7l-2.31,1.08a27.71,27.71,0,0,0-1.81,2.52,2.22,2.22,0,0,0,.22,2.7,6.81,6.81,0,0,0,4,2.37,1.92,1.92,0,0,0,1.85-.58,17.07,17.07,0,0,0,2.67-3.6,2.32,2.32,0,0,0,0-1.34Z"/><polygon class="cls-2" points="8 5.49 2.67 27.16 0 33.92 13.77 38.68 23.34 14.32 23.63 9.6 8 5.49"/><polygon class="cls-2" points="95.06 6.1 100.91 29.2 101.86 36.92 116.23 34.57 112.78 6.82 110.75 2.22 95.06 6.1"/></g></g></svg>