<svg xmlns="http://www.w3.org/2000/svg" viewBox="0 0 36 36" width="36" height="36">
  <rect x="0" y="0" width="36" height="36" rx="8" fill="#000000"/>
  <g transform="translate(1.5,1.5) scale(0.9166)">
    <path d="M4 8 Q 4 6, 6 6 L 16 6 Q 18 6, 18 8 L 18 30 L 6 30 Q 4 30, 4 28 Z" stroke="#ffffff" stroke-width="2.5" stroke-linejoin="round" fill="none"/>
    <path d="M32 8 Q 32 6, 30 6 L 20 6 Q 18 6, 18 8 L 18 30 L 30 30 Q 32 30, 32 28 Z" stroke="#ffffff" stroke-width="2.5" stroke-linejoin="round" fill="none"/>
    <path d="M8 12 L 14 12 M 8 16 L 14 16 M 8 20 L 14 20" stroke="#FFC800" stroke-width="2" stroke-linecap="round"/>
    <path d="M22 12 L 28 12 M 22 16 L 28 16 M 22 20 L 28 20" stroke="#FFC800" stroke-width="2" stroke-linecap="round"/>
  </g>
</svg>
