<svg id="Layer_1" data-name="Layer 1" xmlns="http://www.w3.org/2000/svg" viewBox="0 0 288 288"><defs><style>.cls-1{fill:#fcc101;}.cls-2{fill:#fff;}.cls-3{fill:#fecf01;}</style></defs><path class="cls-1" d="M187.76,64.38c4.21-.88,16.48,1.33,16.79,3.48.22,1.56.57,2.51,1.26,6l4.26,2.73L231.38,74l6-4.88a4.45,4.45,0,0,1,4.54-.67c2.5,1,6,2.71,6.34,4.08.54,2.16-3.72,5.86-3.72,5.86L235.84,81s-10.2,8.46-11.87,9.89A29.09,29.09,0,0,0,219.06,96a32.14,32.14,0,0,1,3.05,6,5.32,5.32,0,0,1-.76,5.25l-8.77,11.16c-3.62,3.64-16.26,23-16.26,23s-13.3,27-30.74,32.84c-9.6,3.25-37.31,22.23-37.31,22.23s-31.27,8-34.84,7.41-28.28-1.59-28.28-1.59l-23.53-6.91L24.54,180.32l1-18a23.43,23.43,0,0,1,3.81-11.54c5.45-8.32,15.83-23.82,19.41-27,4.95-4.41,29.38-24.57,29.38-24.57S107,88,112.37,84.47s32.42-5.9,36.25-5.68,14.37-4.73,21.23-5.2S182.27,65.53,187.76,64.38Z"/><path class="cls-2" d="M23.18,167.63l-2.31-4.18c4.43-2.44,14.07-9.8,25.23-18.32,21.71-16.57,48.73-37.18,61.28-40.25,56.6-13.8,85.64-28.81,100-39l2.76,3.9c-21.43,15.12-55.63,28.48-101.66,39.71-11.58,2.82-39.28,24-59.51,39.4C37.22,157.91,27.91,165,23.18,167.63Z"/><path class="cls-2" d="M11.18,188.18H11.1v-4.77h.08c13.41,0,53.72-10.9,61.34-13.67,7.2-2.62,56.64-20.11,61.43-21.8,3.43-2.68,30.86-23.87,43.19-25.29,9.63-1.11,33-16.54,41.18-22.38l2.77,3.88c-1.24.89-30.59,21.76-43.41,23.24-9.58,1.1-32.91,18.09-41.09,24.54l-.3.25-.38.13c-.54.19-54.24,19.18-61.75,21.91C66.13,177.15,25.36,188.18,11.18,188.18Z"/><path class="cls-2" d="M47,203.26c-3,0-6.14-.08-9.3-.27l.28-4.76c43.4,2.56,73.08-13.25,99.27-27.2,6.86-3.65,13.33-7.09,19.72-10,14.95-6.86,25.52-14.38,35.75-21.65s19.74-14,32-18.68l1.69,4.46c-11.66,4.43-21,11.08-30.89,18.11S174.34,158.3,159,165.35c-6.26,2.86-12.68,6.28-19.47,9.9C115.89,187.83,86.88,203.26,47,203.26Z"/><path class="cls-2" d="M267.33,91.87c-.52-4.27-6.07-16.21-8.2-16.64-1.55-.31-5.35-1.07-8.78-2l-.73-8.07,3.33-13,5.22-5.67a4.47,4.47,0,0,0,.92-4.49c-.89-2.56-2.37-6.14-3.72-6.57-2.12-.66-6.06,3.39-6.06,3.39l-3.1,8.49s-9,9.7-10.54,11.28a29.21,29.21,0,0,1-5.41,4.62,31.76,31.76,0,0,0-5.8-3.39,5.29,5.29,0,0,0-5.28.47l-11.65,8.11c-3.84,3.41-23.88,14.93-23.88,14.93S156,95.08,149.11,112.16c-3.78,9.4-24.31,36-24.31,36s-9.81,30.75-9.38,34.35,0,28.33,0,28.33L121,234.72,135,252.63h24.3s29.43-14.07,34.12-18.76S231,195.49,231,195.49s13.22-26.34,17-31.51,6-27.76,6-31.6,5.55-14.07,6.4-20.9S267.85,96.13,267.33,91.87Z"/><path class="cls-2" d="M161.51,262.18H130.4L112.15,239l-6.3-27.1,0-1.18c.2-11.29.28-24.86.07-27.08-.23-1.93-.67-5.61,9.77-38.34l.51-1.6,1-1.33c8.19-10.61,20.74-28.09,23-33.72,7.76-19.29,34-31.58,39.1-33.81,9.09-5.23,19.9-11.83,21.83-13.51l.89-.7,11.64-8.11a14.88,14.88,0,0,1,14.79-1.28l.71.34c1.88-2,6.44-6.87,8.69-9.3l3.14-8.59,1.42-1.46c3-3.08,9-7.95,15.74-5.84,5.44,1.69,8,7,9.89,12.52A14,14,0,0,1,265.19,53l-3.59,3.9-2.22,8.69,1.62.33c10.87,2.17,15.77,24.6,15.8,24.83h0c.6,4.93-1.58,9.48-3.88,14.28-1.26,2.61-2.81,5.86-3,7.68-.59,4.71-2.55,9.82-4.28,14.33a61.91,61.91,0,0,0-2.06,5.87c-.19,3.81-1.68,28.52-7.84,36.81-2.09,2.81-9.87,17.51-16.18,30.09l-.67,1.32-1,1.06c-1.34,1.38-32.93,33.79-37.61,38.47-5.09,5.09-25.21,15.1-36.75,20.62Zm-21.83-19.09h17.49c12.63-6.11,27-13.74,29.62-16,4.06-4.06,30.73-31.42,36.33-37.16,3.27-6.48,13.22-26,17.13-31.41,2-3.9,4.22-21.52,4.22-26.1,0-3.6,1.46-7.41,3.31-12.23,1.28-3.31,2.86-7.44,3.16-9.85.62-4.9,2.82-9.5,4.77-13.56.65-1.36,1.58-3.29,2-4.41a50.77,50.77,0,0,0-3.63-8.4c-1.8-.38-4-.87-6.09-1.41l-6.52-1.67L240.24,67.5a42.18,42.18,0,0,1-4.58,3.59l-5.8,4-5.52-4.37a16.15,16.15,0,0,0-1.78-1.13L213.34,76c-4.93,4-20.22,12.91-24.94,15.62l-1,.51c-6.23,2.67-25,12.73-29.41,23.6-3.77,9.36-19.43,30.19-24.58,36.92-3.8,12-7.88,26-8.41,29.66.32,4.95.12,19.91,0,27.53l4.81,20.66Zm100.7-84.79,0,0Zm23.18-25.92s0,.18,0,.46A3.78,3.78,0,0,0,263.56,132.38Z"/><path d="M271.83,93.74c.52,4.26-6.1,16.72-6.95,23.55s-6.4,17.06-6.4,20.89-2.13,26.44-6,31.61-11.24,34.14-11.24,34.14-26.92,35.48-31.62,40.17c-3.8,3.81-23.34,7.81-31.82,12.5-2.06,1.14-15.24,1.84-17.6,1.84l-18.87-1.64a3.59,3.59,0,0,1-1.86-.72L135,252.63c-.87-1.1-9.77-12.81-10.09-14.17l-5.07-21.81s.44-24.74,0-28.33S129.27,154,129.27,154l132-76.55Z"/><path class="cls-1" d="M267.33,91.87c-.52-4.27-6.07-16.21-8.2-16.64-.86-.17-2.43-.48-4.24-.88a6.34,6.34,0,0,1-4.95-5.61l-.32-3.53,3.33-13,5.22-5.67a4.47,4.47,0,0,0,.92-4.49c-.89-2.56-2.37-6.14-3.72-6.57-2.12-.66-6.06,3.39-6.06,3.39l-3.1,8.49S241.38,58,239.86,59.57c-.39.41-.8.84-1.27,1.3a7.22,7.22,0,0,1-7.78,1.48c-2.43-1-5.25-2-6.35-2.52a5.29,5.29,0,0,0-5.28.47l-11.65,8.11c-3.84,3.41-23.88,14.93-23.88,14.93S156,95.08,149.11,112.16c-3.78,9.4-24.31,36-24.31,36s-9.81,30.75-9.38,34.35,0,28.33,0,28.33l5.07,21.81a9.53,9.53,0,0,0,1.8,3.75L135,252.63h20.72a13.94,13.94,0,0,0,6.74-1.73c8.48-4.69,31.37-17.5,35.18-21.31,4.69-4.69,33.31-34.1,33.31-34.1s13.22-26.34,17-31.51,6-27.76,6-31.6,5.55-14.07,6.4-20.9S267.85,96.13,267.33,91.87Z"/><path class="cls-2" d="M234.22,86.21c1.09,2.18,9.81,12.54,9.81,12.54s2.19,20.62,2.19,24-12,42.6-12,42.6l-18.55,27.27s-14.73,13.13-19.09,17.48-16.36,15.8-19.09,15.8-21.82,7.63-25.09,7.63-20.53-7.26-21.37-9.27a67.27,67.27,0,0,1-4.27-24c0-11.46,4.91-24.55,6.55-31.64s12.54-30,15.27-33.27,20.73-28.36,25.09-31.64,20.18-16.36,27.82-17.45,19.09-4.36,21.82-4.36S234.22,86.21,234.22,86.21Z"/><polygon class="cls-3" points="202.12 121.39 198.07 120.73 195.98 120.72 194.13 121.67 192.41 122.7 191.11 125.54 190.29 128.13 190.44 130.21 192.1 134.1 195.53 136.68 197.39 137.63 199.12 138.79 203.07 140.2 207.22 139.69 209.13 139.03 211.03 138.21 212.34 136.58 213.28 132.54 212.58 130.7 211.29 129 210.94 126.71 209.27 125.39 206.27 123 202.12 121.39"/><polygon class="cls-3" points="158.11 191.69 154.72 190.8 153.01 190.58 151.59 191.08 150.29 191.66 149.52 193.59 149.11 195.4 149.45 196.93 151.21 199.92 154.28 202.15 155.9 203.04 157.44 204.06 160.82 205.49 164.15 205.55 165.65 205.26 167.13 204.86 168.03 203.8 168.38 200.96 167.62 199.55 166.39 198.18 165.87 196.47 164.37 195.34 161.67 193.29 158.11 191.69"/><path class="cls-3" d="M230,144l-.68-3.32-2.45-2.91-2-3.19-1.47-1.16-1.88-.36-1.84-.23-2.62,1.26a6.57,6.57,0,0,0-1.8,1,19.22,19.22,0,0,0-1.66,2.2l-1,3.29.73,3.6.87,1.78.52,1.76,1.94,3.16,3.22,1.94,1.75.59,1.84.48,1.9-.42,3.1-2.29.62-1.67.33-1.51.93-2.17Z"/><path class="cls-3" d="M185.7,125.5l1-1.47.88-1.57,0-1.81-1.48-3.28-1.45-.91-1.38-.6-1.86-1.29-1.85,0-3.33-.06-3.35,1.63-3.5,1.13-1.45,1.1-.78,1.63-.64,1.62.6,2.64a5.79,5.79,0,0,0,.56,1.83,17.25,17.25,0,0,0,1.72,2l2.92,1.58,3.61.08,1.91-.43,1.8-.12,3.47-1.11Z"/><path class="cls-3" d="M182.06,214.26l.94-.92.9-1,.32-1.33-.56-2.64-.92-.9-.92-.67-1.16-1.24-1.35-.31-2.44-.59-2.72.66-2.75.27-1.24.58-.83,1.07-.73,1.09,0,2a4.28,4.28,0,0,0,.11,1.43,14.27,14.27,0,0,0,1,1.72l1.89,1.63,2.64.63h1.47L177,216l2.73-.27Z"/><polygon class="cls-3" points="154.48 150.46 150.82 150.98 149.02 151.53 147.67 152.84 146.46 154.19 146.1 156.98 146.09 159.43 146.78 161.18 149.24 164.08 152.88 165.39 154.74 165.72 156.54 166.25 160.31 166.41 163.75 164.87 165.22 163.79 166.64 162.58 167.33 160.82 167.06 157.1 165.97 155.69 164.4 154.57 163.49 152.69 161.7 152 158.48 150.74 154.48 150.46"/><path class="cls-3" d="M208.8,179.82l-1.45-3-2.8-2.23-2.47-2.61-1.52-.77-1.65.09-1.58.21-1.83,1.83a5.5,5.5,0,0,0-1.2,1.39,18.35,18.35,0,0,0-.79,2.51l0,3.41,1.56,3.29,1.2,1.52.9,1.57,2.44,2.59,3.18,1.11,1.6.16,1.65,0,1.46-.85,1.94-2.94.07-1.75-.13-1.54.18-2.3Z"/><path class="cls-3" d="M186.34,172.65l1.81-.23,1.82-.34,1.28-1.06,1-3-.59-1.54-.72-1.31-.66-2-1.52-1.28-2.72-2.31-3.9-1.31-3.69-1.7-1.95-.33-1.77.45-1.65.55-1.32,2a4,4,0,0,0-.8,1.48,13.7,13.7,0,0,0,.07,2.36L172.4,166l2.94,2.5,1.88,1.05,1.58,1.16,3.64,1.7Z"/><polygon class="cls-3" points="205.9 112.56 207.14 115.16 212.35 119.77 215.71 120.97 220.22 121.06 223.6 121.13 225.4 119.56 225.45 117.06 225.52 113.77 223.5 110.02 217.45 106.84 213.43 106.75 208.45 106.01 205.99 108.05 205.9 112.56"/><polygon class="cls-3" points="191.44 100.99 195.98 100.53 199.97 100.61 203.11 101.23 204.56 104.29 204.51 106.75 203.47 110.85 200.28 112.16 195.61 112.06 191.22 111.97 188.52 109.31 187.33 107.22 187.4 103.94 188.67 102.31 191.44 100.99"/><polygon class="cls-3" points="229.39 119.08 232.69 119.14 234.59 120.19 237.15 122.81 238.29 127.22 238.22 130.93 236.25 133.09 231.91 131.81 228.51 128.53 226.79 125.47 226.87 121.83 229.39 119.08"/><polygon class="cls-3" points="159.57 218.06 156.31 220.54 153.66 220.99 149.15 220.42 144.62 217.01 141.82 213.35 142.07 209.73 147.28 207.62 153.11 208.18 157.16 209.83 159.9 213.43 159.57 218.06"/><polygon class="cls-3" points="184.01 192.33 183.64 194.53 184.99 199.95 186.67 202.36 189.61 204.67 191.82 206.4 193.73 206.35 194.9 204.86 196.45 202.89 196.82 199.6 194.26 194.64 191.64 192.58 188.68 189.63 186.12 189.64 184.01 192.33"/><polygon class="cls-3" points="145.1 171.1 149.64 170.64 153.62 170.72 156.77 171.34 158.22 174.4 158.17 176.86 157.13 180.96 153.93 182.27 149.27 182.17 144.87 182.08 142.18 179.42 140.99 177.33 141.05 174.04 142.32 172.42 145.1 171.1"/><polygon class="cls-3" points="160.94 176.16 165.31 173.64 168.67 173.57 174.19 175.15 179.35 180.33 182.33 185.5 181.54 190.03 174.79 191.7 167.62 189.88 162.82 187.02 159.9 181.95 160.94 176.16"/><polygon class="cls-3" points="201.95 160.49 202.26 163.5 205.82 169.91 208.73 172.28 213.16 173.96 216.49 175.21 218.83 174.28 219.76 171.83 220.99 168.58 220.3 164.16 215.42 158.87 211.46 157.38 206.78 154.89 203.63 156.05 201.95 160.49"/><polygon class="cls-3" points="162.04 132.93 167.51 132.38 172.3 132.48 176.09 133.22 177.84 136.9 177.77 139.87 176.53 144.8 172.68 146.38 167.06 146.26 161.77 146.16 158.53 142.95 157.09 140.44 157.18 136.48 158.7 134.52 162.04 132.93"/><polygon class="cls-3" points="143.38 190.29 144.97 193.89 145.97 197.18 146.31 199.92 144.19 201.93 142.16 202.55 138.52 202.8 136.59 200.53 135.42 196.68 134.31 193.05 135.77 190.13 137.16 188.59 139.88 187.76 141.55 188.37 143.38 190.29"/><polygon class="cls-3" points="181.49 142.29 185.87 139.86 189.16 139.77 194.52 141.26 199.41 146.19 202.14 151.12 201.21 155.45 194.53 157.09 187.56 155.39 182.96 152.68 180.27 147.84 181.49 142.29"/><polygon class="cls-3" points="228.37 96.95 224.27 94.73 220.35 93.74 216.32 94.54 214.8 97.99 215.93 99.95 220.09 103.34 223.04 104.76 226.17 105.56 229.62 106.44 232.43 103.67 231.34 99.71 228.37 96.95"/><polygon points="146.83 161.13 149.29 164.04 152.93 165.35 154.79 165.67 156.59 166.2 160.37 166.36 163.8 164.83 165.27 163.74 166.69 162.53 167.38 160.78 167.11 157.05 166.02 155.65 165.6 155.35 165.62 155.64 164.93 157.39 163.51 158.6 162.04 159.68 158.61 161.22 154.83 161.06 153.03 160.53 151.17 160.2 147.53 158.89 146.15 157.27 146.14 159.38 146.83 161.13"/><polygon points="158.53 142.92 161.77 146.13 167.06 146.24 172.68 146.36 176.53 144.78 177.77 139.85 177.84 136.88 176.09 133.2 176.05 133.19 176.01 134.7 174.77 139.64 170.92 141.21 165.3 141.1 160.01 140.99 157.14 138.15 157.09 140.41 158.53 142.92"/><polygon points="223.77 110.39 223.74 111.88 223.69 114.37 221.89 115.94 218.51 115.88 214 115.78 210.65 114.59 205.99 110.47 205.95 112.52 207.19 115.11 212.41 119.73 215.76 120.93 220.27 121.02 223.65 121.09 225.09 119.83 225.4 119.56 225.52 116.25 225.57 113.72 223.77 110.39"/><path d="M186.34,172.61l1.81-.23L190,172l1.28-1.07,1-3-.58-1.53-.72-1.31-.6-1.86-.88,2.55-1.28,1.07-1.82.34-1.81.22-3.9-.24-3.64-1.7-1.58-1.16-1.88-1L171,161.08a18.77,18.77,0,0,0,.1,1.93L172.4,166l2.94,2.51,1.88,1,1.58,1.16,3.64,1.69Z"/><polygon points="227.91 101.26 224.47 100.38 221.33 99.58 218.38 98.16 215.72 95.98 214.85 97.95 215.98 99.9 220.14 103.3 223.09 104.72 226.22 105.52 229.67 106.4 232.48 103.62 231.39 99.67 230.43 98.77 227.91 101.26"/><polygon points="174.84 191.66 181.59 189.99 182.38 185.46 180.34 181.91 179.83 184.84 173.08 186.51 165.92 184.7 161.12 181.84 160.24 180.31 159.96 181.91 162.88 186.98 167.68 189.84 174.84 191.66"/><polygon points="149.32 182.13 153.99 182.23 157.18 180.92 158.22 176.82 158.22 176.8 158.2 176.76 158.22 176.62 158.27 174.35 156.82 171.3 156.47 171.23 156.46 171.68 155.42 175.78 152.23 177.08 147.56 176.99 143.16 176.9 141.09 174.84 141.04 177.29 142.23 179.38 144.92 182.04 149.32 182.13"/><polygon points="237.2 122.76 236.58 122.13 236.51 125.74 234.54 127.9 230.2 126.62 226.88 123.42 226.84 125.42 228.56 128.49 231.96 131.76 236.3 133.05 238.27 130.89 238.34 127.18 237.2 122.76"/><path d="M211.34,129l-.06-.38-.65,2.81-1.3,1.64-1.91.81-1.91.67-4.14.5-4-1.41-1.74-1.15-1.86-1-3.42-2.57.09,1.25,1.66,3.88,3.43,2.59,1.86,1,1.74,1.15,3.95,1.41,4.14-.5,1.91-.67,1.9-.81,1.26-1.59a15.53,15.53,0,0,0,.94-4l-.65-1.88Z"/><polygon points="199.5 150.27 192.82 151.9 185.86 150.2 181.25 147.49 180.63 146.38 180.32 147.79 183.01 152.63 187.62 155.35 194.58 157.05 201.21 155.45 202.14 151.12 200.13 147.35 199.5 150.27"/><path d="M175.07,129.67l.84,0,1.91-.43,1.81-.12,3.46-1.11,2.6-2.53,1-1.47.89-1.57,0-1.81-1.48-3.28-.32-.2v.15l-.89,1.57-1,1.47-2.59,2.52L177.87,124l-1.81.11-1.91.43-3.6-.07-2.92-1.58s-.58-.59-1.09-1.17l.57,2.51a5.79,5.79,0,0,0,.56,1.83,9.69,9.69,0,0,0,1,1.24l.71.73,2.85,1.62Z"/><polygon points="208.85 179.82 207.79 177.6 207.71 178.67 207.84 180.21 207.77 181.96 205.83 184.89 204.37 185.74 202.72 185.71 201.12 185.55 197.95 184.44 195.51 181.85 194.6 180.28 193.58 178.98 193.61 180.61 195.16 183.9 196.36 185.42 197.26 186.99 199.71 189.58 202.88 190.69 204.48 190.85 206.13 190.88 207.59 190.04 209.53 187.1 209.6 185.35 209.47 183.81 209.65 181.51 208.85 179.82"/><polygon points="219.11 162.91 219.2 163.44 217.97 166.69 217.04 169.14 214.7 170.07 211.37 168.81 206.94 167.14 204.03 164.77 201.95 160.49 202.23 163.5 205.79 169.91 208.69 172.28 213.13 173.96 216.46 175.21 218.8 174.28 219.73 171.83 220.96 168.58 220.27 164.16 219.11 162.91"/><polygon points="194.69 197.75 193.14 199.72 191.97 201.21 190.06 201.26 187.85 199.53 184.91 197.21 183.98 195.88 184.99 199.95 186.67 202.36 189.61 204.67 191.82 206.4 193.73 206.35 194.9 204.86 196.45 202.89 196.82 199.6 194.9 195.88 194.69 197.75"/><polygon points="229.32 140.65 228.39 139.54 228.62 140.68 227.69 142.84 227.36 144.36 226.74 146.03 223.65 148.32 221.74 148.73 219.9 148.25 218.15 147.66 214.93 145.72 213.05 142.66 213.36 144.16 214.23 145.95 214.75 147.71 216.69 150.87 219.91 152.8 221.66 153.39 223.5 153.88 225.41 153.46 228.5 151.17 229.12 149.5 229.45 147.98 230.38 145.82 230 143.98 229.32 140.65"/><polygon points="202.8 101.56 201.76 105.67 198.57 106.97 193.9 106.88 189.51 106.79 187.43 104.73 187.38 107.18 188.57 109.27 191.27 111.93 195.66 112.02 200.33 112.12 203.52 110.81 204.32 107.64 204.19 107.37 204.27 103.53 203.16 101.19 202.81 101.12 202.8 101.56"/><polygon points="157.86 212.87 154.6 215.35 151.95 215.81 147.44 215.24 142.91 211.82 142.05 210.7 141.88 213.31 144.67 216.97 149.2 220.38 153.71 220.95 156.36 220.49 159.62 218.01 159.95 213.38 158 210.83 157.86 212.87"/><polygon points="144.25 201.89 146.37 199.88 146.02 197.13 145.02 193.85 144.29 192.19 144.6 194.74 142.49 196.74 140.45 197.36 136.81 197.61 135.18 195.7 135.47 196.63 136.64 200.49 138.57 202.76 142.21 202.51 144.25 201.89"/><path d="M182.79,207.42l-.56-.41,0,.13-.91,1-.94.92L178,210.52l-2.72.26-1.35-.21-1.47,0-2.63-.64-1.21-1v1.4a4.17,4.17,0,0,0,.12,1.44,13.25,13.25,0,0,0,.94,1.72l1.89,1.62,2.64.64h1.47l1.34.2,2.73-.26,2.31-1.44.94-.93.91-1,.31-1.32-.56-2.65Z"/><polygon points="168.42 201.02 168.43 200.92 167.67 199.5 166.44 198.13 166.4 197.98 166.32 198.62 165.42 199.67 163.94 200.07 162.45 200.36 159.11 200.3 155.73 198.87 154.19 197.85 152.57 196.97 149.5 194.74 149.36 194.49 149.16 195.35 149.5 196.88 151.26 199.88 154.33 202.11 155.95 203 157.49 204.01 160.87 205.45 164.21 205.5 165.7 205.22 166.91 204.89 167.13 204.86 168.03 203.8 168.42 201.02"/></svg>