<svg xmlns="http://www.w3.org/2000/svg" viewBox="0 0 62.3 114.27"><defs><style>.cls-1{fill:#ffc20e;}.cls-2{fill:#231f20;}.cls-3{fill:#fff;}</style></defs><g id="Layer_2" data-name="Layer 2"><g id="Laag_1" data-name="Laag 1"><polygon class="cls-1" points="0.91 59.78 1.24 80.31 0.78 93.39 2.18 101.61 1.98 113.49 7.57 113.57 12.91 110.97 19.7 113.73 26.04 111.05 33.82 113.91 40.25 111.31 47.58 114.09 53.59 111.49 60.51 114.27 61.1 105.65 59.88 89.63 59.41 80.38 60.08 70.94 60.11 59.17 60.02 51.29 49.25 51.21 0 46.95 0.91 59.78"/><path class="cls-2" d="M2.13,42.55l.18,4.6,38.45,3.32c-.21-2.6-.39-4.79-.36-4.93.09-.34,0-4.72,0-4.72s-.32-13.18-.23-13.44.34-2.51.34-2.51l-5.77.27c-.23.06-20.35-1-20.64-1S2,25.37,2,25.37l.7,3.92Z"/><path class="cls-3" d="M5.17,40l5.33.4,15.24-.56,8,.58,3.4-.14.26,1.63a32.47,32.47,0,0,1-3.31.33c-.25-.08-9.47-.32-9.47-.32l-18,.66-1.13-.87Z"/><path class="cls-3" d="M58,103.91l-6.26.08-34.91.59L8.29,105l-3.47-.44-.52,1.31a31,31,0,0,0,3.65,1c.26-.09,22.4-.52,22.4-.52l28.05,1Z"/><polygon class="cls-2" points="33.52 16.44 27.56 17.15 20.82 17.79 14.69 18.64 6.6 19.9 2.21 20.28 1.02 16.56 0.86 6.16 6.89 5.48 13.01 4.48 19.12 3.79 25.3 2.94 31.79 2.35 32.04 5.03 33.55 12.66 33.52 16.44"/><polygon class="cls-2" points="44.39 20.7 47.3 20.12 53.1 19.18 57.5 17.79 59.61 17.19 62.3 31.44 59.35 31.99 56.43 32.54 53.44 33.09 50.44 33.83 47.24 34.29 46.72 31.97 44.92 25.96 44.39 20.7"/><polygon class="cls-2" points="54.79 15.27 51.83 15.02 45.99 14.33 41.39 14.44 39.19 14.44 40.55 0 43.53 0.29 46.49 0.57 49.52 0.86 52.6 0.98 55.8 1.42 55.67 3.79 55.73 10.06 54.79 15.27"/><path class="cls-3" d="M16.67,5.16l.51,1.55,1.66,5.66.08,2.72.35,1.11-1.54.39s-.6-.94-.54-1-.3-3.22-.3-3.22L15,5.75l.75-.54Z"/><polygon class="cls-2" points="49.25 51.21 58.08 51.28 58.18 42.42 56.01 42.25 52.17 41.82 49.1 41.9 45.76 41.7 42.79 41.66 42.5 45.41 42.63 50.63 49.25 51.21"/><polygon class="cls-3" points="21.78 48.83 21.27 33.36 21.07 28.59 20.09 28.2 19.23 29.34 19.86 48.67 21.78 48.83"/></g></g></svg>