<svg xmlns="http://www.w3.org/2000/svg" viewBox="0 0 64 64" fill="none" stroke="#000" stroke-width="3.4" stroke-linecap="round" stroke-linejoin="round">
  <!-- stem -->
  <path d="M33 10 q 2 -5 8 -5.5"/>
  <!-- small leaf off the stem -->
  <path d="M41 4.5 q 6 -1 8 3 q -4 4 -9 1.5" fill="#000" stroke="none"/>
  <!-- cocoa pod: pointed ovoid -->
  <path d="M33 10 C 22 15 16 31 20 47 C 23 57 28 60 33 60 C 38 60 43 57 46 47 C 50 31 44 15 33 10 Z"/>
  <!-- vertical ridges -->
  <path d="M26 15 C 22 31 23 47 28 57"/>
  <path d="M33 12 C 31 31 31 47 33 59"/>
  <path d="M40 15 C 44 31 43 47 38 57"/>
</svg>
