<svg id="Layer_1" data-name="Layer 1" xmlns="http://www.w3.org/2000/svg" xmlns:xlink="http://www.w3.org/1999/xlink" viewBox="0 0 288 288"><defs><style>.cls-1{fill:none;}.cls-2{clip-path:url(#clip-path);}.cls-3{clip-path:url(#clip-path-2);}.cls-4{fill:#ffbf00;}</style><clipPath id="clip-path"><rect class="cls-1" x="50.51" y="19.98" width="233.35" height="248.04"/></clipPath><clipPath id="clip-path-2"><rect class="cls-1" x="50.51" y="19.98" width="233.35" height="248.04"/></clipPath></defs><g id="Artwork_92" data-name="Artwork 92"><g class="cls-2"><g class="cls-3"><path class="cls-4" d="M182.62,235.22l12.54-15.87,6.68-16.51,3.34-19s3.55-15.66,3.76-16.71c.11-.55.22-4.8.3-9l-74.8,1.21-30.56.37-11.5,1.13,2.26,39.3,16.51,42.6,22,8,30.09-.54,6.18-3.94Z"/><path d="M211,242.51l13-16.08,1.21-3.67,1.38-.81,1.18.2L254,217.39l9-5.73,5.95-8.6,1.33-3.32-5.85-20-19.24-12-12.56-3.08s.21-4.79.06-4.53L223.06,158l-13.82.22c-.08,4.15-.19,8.4-.3,9-.21,1-3.76,16.72-3.76,16.72l-3.34,19-6.68,16.51-12.54,15.87L169.46,246.3l-6.18,3.94,34.71-.62Zm18.05-43.2.8-13.54,1.26-6.19,1.37-2.27,9.55,1,13.1,6.91L257,202.09l-10.45,4.6-15.69,2.78-2.35-.09-1.26-1.12Z"/><path class="cls-4" d="M283.87,243.23l-78.27,5.29L131.51,248l-79.94-3.89-1,5.4,9.91,8.35,28,2.79,46.08,3.9,29.16,2.23s18.67-.84,21.58-1.12,32.08-2.5,32.08-2.5,20.41-4.74,22.16-5S271.62,251,271.62,251l8.16-2.51Z"/><polygon points="138.54 268.02 197.03 268.02 219.39 261.75 211.45 261.33 180.33 260.22 151.01 259.66 130.12 261.06 117.23 261.33 138.54 268.02"/><path d="M158.4,70.3l-5.09-11.5-3.48-5.37-5.54-3.18-5.54-2.68L129.3,49l-8,2.22-5.09,3.89L109,65.85,108.1,79l.68,6.39-.06,6.38,3,12.49,8.21,9.8,4.91,3.79,5.29,3.53,6.37.61,11.93-4.35,3.57-4.87,2.21-6.16,5.3-4.72.59-6.5,1.12-11.72ZM140,105c.09.38-2,6.32-4.55,11.7l-3.92-1.19,3.77-9.92.77-9.74L133,89.52l-6-10.26.29-8,.87-10.09a56.37,56.37,0,0,0,2.92-7l4.3-2.65,3.57,2.9c-1.78,6.66-4.62,13.66-4.53,14,.15.68.46,9.1.49,9.68S141,91.24,141,92.29s-1.12,12.07-1,12.75"/><path d="M204.89,101.26l-2.7-4-3.05-3.91-4.56-2-9.89.29-3.83,2.73-3,2.85-5.22,3.36-2,4.66-3.7,8.4.6,10.23-.84,10.07,1.26,4.83,3.32,3.71,3.43,3.34,7.34,1.27a15.81,15.81,0,0,0,5.25.52,49.24,49.24,0,0,0,6.8-2.28l7.1-5.74,4-9.07.94-5.31,1.6-4.7.85-10Zm-11.53,2.42-3.82,6.81-.3,5.69,2,9.07L189,131.09l-3.12,7.25a24,24,0,0,1-1.84,3.79l-4.94,1-2.74-2.48s6.62-8.65,6.67-9.2,1.89-6.84,2-7.27-1.39-11.2-1.09-12,3.79-8.65,3.84-9.19a39.91,39.91,0,0,1,4.47-6.17c1.5-.85,5.76,1.75,5.76,1.75Z"/><path d="M200.08,44.56l-1.67-7.42-5.63-6.42-4.54-7.06-3.34-2.52-4.24-.73L176.53,20l-5.83,2.95a14.47,14.47,0,0,0-4,2.35,43.23,43.23,0,0,0-3.64,5L161,37.71l1.79,8,2,4,1.26,3.92,4.49,7,7.3,4.2,4,1.24,4.14,1,4.25-1,6.84-5.28L198.37,57l.67-3.42,2-4.9ZM188.51,61.45c-.63,1.34-5.24,1.94-5.24,1.94l1.28-6.58-.54-6-2.68-3.9-6-4.95-1.44-5-1.49-6.38a12.24,12.24,0,0,1-.62-3l3-3.17,3.19.22s-.28,8.67,0,9,2.16,5.47,2.29,5.82,6.69,6.64,6.86,7.3,1.49,7.16,1.73,7.54a39.41,39.41,0,0,1-.3,7"/></g></g></g></svg>