<svg xmlns="http://www.w3.org/2000/svg" viewBox="0 0 91.99 81.67"><defs><style>.cls-1{fill:#ffc20e;}.cls-2{fill:#231f20;}</style></defs><g id="Layer_2" data-name="Layer 2"><g id="Laag_1" data-name="Laag 1"><path class="cls-1" d="M18.14,80.89l5.4.07,13.2-.61,38-14L74,56.7l-.1-2.13L18.24,75.11Z"/><path class="cls-1" d="M52,2.14l-4.89.78-6.67-.46L31.76.23l-20.34,8L6.89,14.26c0,.15-.65,2.21-1.48,5C13.91,16.19,33.05,9.14,52,2.14Z"/><path class="cls-1" d="M90.54,31.44l-2.69-11.1c-19.09,7.06-51.23,18.94-70.43,26v.89l-.37,11.32Z"/><path class="cls-1" d="M17.07,61l1.27,7.83-.06,3.8c16.79-6.18,41.63-15.35,55.54-20.48l-.23-4.84L74,42l18-4.61-.9-3.68C69.86,41.53,36.52,53.85,17.07,61Z"/><path class="cls-1" d="M17.35,42l0,1.94L87.3,18.09l-1.09-4.48L78,9.54C57.89,16.94,2.39,37.42,1.57,37.68l-.7-2.19c1-.33,44.84-16.5,74.25-27.36L62.63,2l-1.5-.73C40.81,8.73,13.61,18.76,4.6,22.06L0,37.7l16.24,4.43Z"/><path class="cls-1" d="M44,80.14,62.16,81.5l12.48.17.58-8.73h0l-.31-4.21Z"/><path class="cls-2" d="M1.91,32.09l15.37,3.24.27,6.74s-1.35-.13-1.75-.13S.29,38.19,0,37.7,1.91,32.09,1.91,32.09Z"/><path class="cls-2" d="M92,37.37c-.14-.56-1.22-5.28-1.22-5.28L73.65,35.74s-.54,6.87,0,6.6S92,37.37,92,37.37Z"/><path class="cls-2" d="M31.76.23l7.82,2.24L46.41,3s5.48-.88,6-.93S58.57,0,58.57,0L63,2,58.79,4.36l-9.1,2.55L38.05,5.44,28.52,1.67Z"/></g></g></svg>