<svg id="Layer_1" data-name="Layer 1" xmlns="http://www.w3.org/2000/svg" viewBox="0 0 288 288"><defs><style>.cls-1{fill:#fecf01;}.cls-2{fill:#120f0f;}.cls-3{fill:#fff;}.cls-4{fill:#fcc101;}</style></defs><path class="cls-1" d="M211.7,144.39l.84-13.25,44.66-11.59L242.64,60.7,184.09,32.1,174,27.26l-15.2,5.21-13.14,2.16-16.53-1.08L107.55,28.1l-50.32,20L46.07,63.14c-.38,1.22-16.78,58.17-16.78,58.17l40.28,10.8,2.7-.39.26,13.08-1,32.85L75,198.29l-.36,29.85,13.39.13,48.24-2.42,47.49,3.36,30.93.29L216,207.87h0l-3.09-40.24Z"/><path class="cls-2" d="M33.88,107.58l38.09,8,.66,16.71s-3.35-.34-4.35-.34-38.43-9.32-39.09-10.53,4.69-13.89,4.69-13.89"/><path class="cls-2" d="M257.11,120.85c-.34-1.39-3-13.09-3-13.09l-42.45,9s-1.35,17,0,16.37,45.46-12.27,45.46-12.27"/><path class="cls-2" d="M107.91,27.77l20.87,5.68,16.39,1.1s12.3-1.95,13.64-2.08L174,27.26l11.38,5.47-10.5,5.33-22.55,6.3-28.85-3.65L99.74,31.2Z"/><path class="cls-3" d="M250.79,208.54l-3-14.31-7-8.27.26-.88.87-5.85L245,170.5,242.82,164,239,152.36l-2.68-2.11-1.17-3.54-11-8.69L215,127.9l-6.42-3-7.87.21-7.64.68-10.33,6.74L181,130.56l-6.53-5.15-8.24-1.6-8-1-11.31,5.66-9.19,6.06-4.83,6.88-4.72,16.18,4.13,16.47,3.41,7.57,2.44,7.68-.07,9.33,9.69,21.48,5.84,4.39-1.93,6.42-13.15,13.37,6.66,13.16,23.63-23.55.12-.7L179,235.54l8.42-1.2,1.23,0,.83-.33,5.46-.78,1.25-.88,4.39,1.68,13.85,7.81,7.84,1.28,7.75-2.53,7.3-2.93,7.18-10.09s3.55-4.17,4.57-7.46S250.79,208.54,250.79,208.54Z"/><path class="cls-3" d="M144.07,260.74l-15.35-18,15.21-15.47-2.68-2L130,200.33l.07-9.82-1.91-6L124.47,176l-4.67-18.58,5.71-19.55,6.47-9.21,11.29-7.36,13.48-6.75,11,1.39,10.15,2,5.66,4.47,6.81-4.45,10.14-.89,9.78-.26,9.61,4.56,9.71,10.79L242,141.9l1.17,3.55,2.68,2.11,7.63,23-3.8,10.61-.37,2.49,5.86,6.9L258.87,208l-.09,1.16c-.17,2.16-.82,9.51-2,13.36-1.32,4.25-4.74,8.6-5.88,10l-8.36,11.75-10,4-9.6,3.12-11.17-1.82-15.13-8.43-5,.72-1.51.6-2.21-.07-9.2,1.31-6.81-1.58Zm73.08-26.54,4.52.73,5.64-1.84,4.87-2,6.25-8.73a20.63,20.63,0,0,0,3-4.64A63.43,63.43,0,0,0,242.7,209l-2.38-11.16-8.54-10.06,1.36-4.5.9-6,2.46-6.87-4.38-13.25-2.68-2.1-1.17-3.55-10.13-8.13-8-8.92-3.23-1.54-5.71.16-5.4.47-14.34,9.38-5.94-6.47L171,132.91l-6.06-1.18-5.36-.67-8.71,4.36-7.52,5-3.2,4.54-3.74,12.81,3.44,13.67,3.45,7.79,2.82,8.9-.07,8.85,8.13,18,8.66,6.52-3,10L161.3,230l1.15-6.52,16.93,3.9L187,226.3h.24l.16-.06,4.51-.64,3.16-2.24,9.46,3.71Z"/><path class="cls-4" d="M207.52,177.73l3.85,11.68,2.16,6.46-3.13,8.73-.87,5.85-2,6.65-12,11-7.72,3.1-7.72-.26-7.4-.72-13.89-4.47-9-10-2.73-6-4.17-5.86-4.13-12.63,3.08-12.94s3.93-6.93,6.17-9.47,7.06-5.21,7.06-5.21l10.41-6.8,7.65-.68,7.86-.21,6.43,3L196.5,169Z"/><polygon class="cls-1" points="199.96 154.6 203.26 169.44 205.13 177.67 200.35 185.66 200.05 194.14 197.53 201.6 184.28 211.89 176.02 213.76 167.96 211.62 160.27 209.01 146.01 200.39 137.23 186.29 134.75 178.44 131.34 170.87 127.2 154.4 131.92 138.22 136.76 131.34 145.95 125.28 157.26 119.62 165.29 120.63 173.54 122.23 180.06 127.38 191.08 139.39 199.96 154.6"/><path class="cls-3" d="M234.22,143.53l3.85,11.68,2.16,6.45-3.13,8.74-.87,5.85-2,6.65-12,11-7.72,3.1-7.72-.26-7.41-.73-13.89-4.46-9-10-2.73-6-4.17-5.86L165.44,157l3.08-13s3.93-6.92,6.17-9.46,7.06-5.21,7.06-5.21l10.41-6.8,7.65-.68,7.86-.21,6.43,3,9.09,10.12Z"/><path class="cls-1" d="M249.88,205.36l-3-14.31-7-8.27.27-.88.86-5.85,3.14-8.73-2.17-6.46-3.84-11.68-11-8.69-9.1-10.11-6.42-3-7.87.21-7.65.68L185.59,135s-4.83,2.66-7.06,5.2-6.17,9.47-6.17,9.47l-3.08,12.94,2.75,8.42-6,13.25,1.13,7.49,1.9,6.31,1,10,5.22,6,9.35,11,15.11,5.78,13.85,7.81,7.84,1.28,7.75-2.53,7.31-2.93,7.17-10.09s3.56-4.17,4.58-7.46S249.88,205.36,249.88,205.36Z"/><polygon class="cls-2" points="185.68 217.5 176.24 213.22 174.53 202.15 179.61 183.37 178.16 173.11 164.63 188.37 158.59 201.76 155.99 198.03 148.76 179.13 147.11 165.27 137.23 179.92 137.11 195.45 146.81 216.93 152.65 221.32 150.71 227.74 137.56 241.11 144.22 254.27 167.85 230.72 167.97 230.02 178.12 232.36 194.06 230.09 208.47 219.93 185.68 217.5"/><path class="cls-2" d="M225.28,205.38l-2.83,2.43L219.84,209l-2.21-2.55,3.77-2.77ZM159,131.8l-5.49,4,3.22,3.72,3.81-1.72,4.12-3.55Zm68.38,25.62-9.44-.69-.28,4.65,3.57,2.07,4.92,1.29ZM211.6,184.08l5.87-2.73-3-3.54-4,1L206,181.29Zm-4.81-20.92-4.06,3,2.38,2.75,2.81-1.27,3-2.62Z"/></svg>