<svg id="Layer_1" data-name="Layer 1" xmlns="http://www.w3.org/2000/svg" xmlns:xlink="http://www.w3.org/1999/xlink" viewBox="0 0 288 288"><defs><style>.cls-1{fill:none;}.cls-2{clip-path:url(#clip-path);}.cls-3{clip-path:url(#clip-path-2);}.cls-4{fill:#ffbf00;}.cls-5{fill:#fff;}</style><clipPath id="clip-path"><rect class="cls-1" x="15.27" y="24.75" width="257.46" height="238.49"/></clipPath><clipPath id="clip-path-2"><rect class="cls-1" x="15.27" y="24.75" width="257.46" height="238.49"/></clipPath></defs><g id="Artwork_82" data-name="Artwork 82"><g class="cls-2"><g class="cls-3"><path class="cls-4" d="M243.72,94.11l8.22-15.2s8.33-21.35,8.33-25V31c0-1.56-7.55-4.68-7.55-4.68L234,46.23,212.36,59.64l-28.11-5.72s-50-5.73-54.16-4.69S101.45,58.86,98.85,59.9s-17.19,1.57-17.19,1.57-27.21-14.2-27.73-16.8S35.84,24.75,35.84,24.75l-5.73,2.61.52,19.79s6.25,24.47,7.81,28.12c1.1,2.55,4.49,11.73,7.32,17.37l-9.4,2.41L15.27,112.23s30.07,19.14,31.24,19.14S70,129,70,129s1.73-1.32,3.64-2.86l2.35,15.23,13.33,44.78,1.56,31.24L112.7,258l10.94,5.21L171,261.16l20.31-20.3s6.77-50,7.81-51.56,17.94-65.61,17.94-65.61.21-1.23.48-2.78l22.69,9.68,9-2.34,23-15.23Z"/><path d="M45.7,92.64C42.87,87,39.48,77.81,38.39,75.26c-1.57-3.64-7.81-28.11-7.81-28.11l-.53-19.79,5.73-2.61s17.58,17.32,18.1,19.92S81.6,61.47,81.6,61.47,96.18,61,98.79,59.9,125.87,50.27,130,49.23s54.16,4.69,54.16,4.69l-10,6.66-8.82,5.06L109.52,100.4l-12.37.86L81.59,97.83l-8.82-.74s-9.36-3.67-10.66-3.67-16.41-.78-16.41-.78"/><path d="M143.76,167.24l26.46-5.93,15.11-8.59,12.6-12.92V112.24l6.37-16.86L217,84.86l7.84-4.68,18.84,13.93,7.16,4.43L272.73,113l-23,15.23-9,2.34L218,120.91c-.27,1.55-.48,2.78-.48,2.78s-16.89,64.05-17.93,65.61-7.82,51.55-7.82,51.55l-20.3,20.31-47.85,2.09L112.7,258l-6.1-11.22s28.09-14.77,38.55-37.36c7.69-16.59-1.39-42.78-1.39-43.2"/><path d="M189.82,129.93s-3.39,7.53-4.24,8-3.52,2.14-5.57,1.86c-1.67-.22-3.32.26-4.78-.79a12.18,12.18,0,0,1-2.8-3.22c-1.49-2.26-2.63-5.16-2.06-7.9A6.48,6.48,0,0,1,173,124c2.51-1.79,4.75-3.64,8-3a11.48,11.48,0,0,1,6.43,3.93,34,34,0,0,1,2.39,5"/><path class="cls-5" d="M177,127.24a9.63,9.63,0,0,0,.9,1.6,5.91,5.91,0,0,0,2.65,1.51,5.36,5.36,0,0,0,3.46-.43,1.9,1.9,0,0,0,1.19-1,2.64,2.64,0,0,0-.71-2.42,4.69,4.69,0,0,0-1.12-1.1,5.77,5.77,0,0,0-2-.5,5.87,5.87,0,0,0-2.41.24c-.37.08-2,2.1-2,2.1"/><path d="M123.09,129.93s-3.39,7.53-4.24,8-3.52,2.14-5.58,1.86c-1.66-.22-3.31.26-4.77-.79a12.18,12.18,0,0,1-2.8-3.22c-1.48-2.26-2.63-5.16-2.06-7.9a6.48,6.48,0,0,1,2.62-3.9c2.51-1.79,4.75-3.64,8-3a11.48,11.48,0,0,1,6.43,3.93,34,34,0,0,1,2.39,5"/><path class="cls-5" d="M110.3,127.24a9.63,9.63,0,0,0,.9,1.6,5.91,5.91,0,0,0,2.65,1.51,5.35,5.35,0,0,0,3.46-.43,1.9,1.9,0,0,0,1.19-1,2.61,2.61,0,0,0-.71-2.42,4.69,4.69,0,0,0-1.12-1.1,5.77,5.77,0,0,0-2-.5,5.9,5.9,0,0,0-2.41.24c-.37.08-2,2.1-2,2.1"/><path class="cls-5" d="M198.62,221.51,190.74,216l-5.83-3.9-12.15-4.28-10-1.58-4.68-10.84-1-31.68V134.26l2.82-35.18,16.21-9.36L189,77.37l-27-8.09-50.57,5.53L103.49,80l19.6,11.23,11.12,10.69,2.94,62.77L136.82,196l-6,11.28-13.88,1.24-15.37,6-4.3,4.6-4.55,6.17.85,4.76s-.17,4.33,1.35,6.9,6.53,10.63,6.53,10.63l16.24,3.76,16.57,1.83,10.2-.46,12.68.4,17.24-1.22,15.46-2.35,3.31-6.82,5.77-5,1.67-6.42Z"/><path d="M113.74,241.5l-2.78-.88-1.54-.48-1.14-1.53-1-.85-.92-1.11-.16-3.09.63-1.5,1.26-1.08,1.3-1,3-1.46,3.28-.06,1.55.35L119,229l3,1,1.93,2a13.16,13.16,0,0,1,.8,2.05,4.75,4.75,0,0,1-.14,1.67l-.36,2.34-1.08,1.19L122,240.36l-1.58.55-3.31.07Z"/><path d="M173.07,240.5l-2.7-.88-1.51-.49-1.1-1.52-.93-.85-.9-1.11-.16-3.1.61-1.49,1.23-1.09,1.27-1,2.93-1.45,3.19-.07,1.52.35,1.7.12,2.92,1,1.88,2a13.49,13.49,0,0,1,.78,2.06,5,5,0,0,1-.14,1.66l-.35,2.35-1.05,1.18-1.16,1.17-1.54.55-3.22.07Z"/><polygon class="cls-5" points="224.54 94.2 250.36 111.43 242.17 114.43 233.95 115.72 217.63 110.42 225.52 105.23 224.54 94.2"/></g></g></g></svg>