<?xml version="1.0" encoding="UTF-8"?><svg id="Layer_2" xmlns="http://www.w3.org/2000/svg" viewBox="0 0 395.98 568.62"><defs><style>.cls-1{fill:#ffc800;}.cls-1,.cls-2{stroke-width:0px;}.cls-2{fill:#000;}</style></defs><g id="Layer_1-2"><polygon class="cls-1" points="88.84 174.41 77.33 143.04 85.7 111.67 98.25 101.21 110.8 89.71 122.3 110.62 123.34 136.76 114.98 158.72 88.84 174.41"/><polygon class="cls-1" points="132.61 113.25 131.52 79.85 149.29 52.69 164.49 46.69 180.01 39.7 184.38 63.17 177.17 88.32 162.35 106.55 132.61 113.25"/><polygon class="cls-1" points="193.76 72.1 200.48 39.37 224.09 17.09 240.26 14.8 256.99 11.62 255.77 35.45 242.91 58.23 224.24 72.51 193.76 72.1"/><polygon class="cls-1" points="270.08 50.13 281.71 18.8 308.45 .39 324.78 .59 341.79 0 336.95 23.37 320.76 43.92 300.14 55.18 270.08 50.13"/><polygon class="cls-1" points="310.77 70.37 341.84 58.1 373.41 65.68 384.17 77.97 395.98 90.23 375.36 102.24 349.25 103.94 327.09 96.12 310.77 70.37"/><polygon class="cls-1" points="315.57 134.51 282.31 131.41 257.58 110.37 253.53 94.55 248.54 78.27 272.37 76.88 296.42 87.17 312.65 104.16 315.57 134.51"/><polygon class="cls-1" points="263.64 147.64 230.25 148.96 202.96 131.37 196.86 116.22 189.77 100.74 213.2 96.22 238.4 103.24 256.73 117.94 263.64 147.64"/><polygon class="cls-1" points="220.76 170.83 188.38 179.07 158.03 167.54 148.91 154 138.75 140.34 160.73 131.03 186.84 132.66 207.83 143.22 220.76 170.83"/><polygon class="cls-1" points="97.27 200.65 123.77 180.3 156.21 178.92 169.93 187.77 184.66 196.32 168.13 213.54 143.5 222.34 120.04 220.91 97.27 200.65"/><polygon class="cls-1" points="70.75 254.91 94.13 231.03 126.05 225.1 140.88 231.93 156.66 238.31 142.73 257.69 119.58 269.87 96.16 271.76 70.75 254.91"/><polygon class="cls-1" points="52.09 312.18 75.01 287.87 106.81 281.34 121.77 287.89 137.67 293.97 124.1 313.61 101.18 326.23 77.8 328.56 52.09 312.18"/><polygon class="cls-1" points="62.24 384.57 74.9 353.65 102.23 336.13 118.55 336.87 135.57 336.84 129.96 360.03 113.11 380.04 92.12 390.62 62.24 384.57"/><polygon class="cls-1" points="79.54 451.41 86.52 418.74 110.32 396.65 126.51 394.49 143.25 391.44 141.84 415.26 128.8 437.94 110.02 452.07 79.54 451.41"/><polygon class="cls-1" points="62.4 454.66 29.89 446.95 8.33 422.67 6.53 406.43 3.86 389.62 27.65 391.56 50.03 405.11 63.73 424.2 62.4 454.66"/><polygon class="cls-1" points="40.55 387.06 12.38 369.1 0 339.09 3.63 323.16 6.63 306.41 28.46 316.06 45.15 336.2 51.82 358.74 40.55 387.06"/><polygon class="cls-1" points="41.33 306.38 14.23 286.83 3.6 256.16 8.14 240.47 12.1 223.91 33.34 234.8 48.84 255.87 54.2 278.75 41.33 306.38"/><polygon class="cls-1" points="60.04 236.56 39.78 209.99 38.5 177.55 47.4 163.86 55.99 149.16 73.16 165.74 81.88 190.4 80.38 213.85 60.04 236.56"/><polygon class="cls-1" points="63.74 538.29 63.74 499.6 63.74 469.28 68.97 458.82 78.38 460.92 80.47 476.6 78.38 500.65 77.33 538.29 76.29 560.25 76.29 568.62 61.65 553.98 63.74 538.29"/><polygon class="cls-2" points="238.13 488.21 221.94 484.88 194.03 489.27 161.69 497.14 134.79 508.15 119.07 517.98 117.74 518.82 121.98 526.11 154.79 525.77 182.84 519.04 222.99 506.03 238.13 488.21"/><polygon class="cls-2" points="283.09 346.66 269.08 355.45 251.96 377.91 234.03 405.96 222.2 432.51 217.65 450.48 217.26 452.01 225.36 454.34 248.84 431.41 264.46 407.16 284.47 370 283.09 346.66"/><polygon class="cls-1" points="275.29 345.37 261.28 354.14 244.13 376.59 226.17 404.61 214.32 431.16 209.75 449.12 209.36 450.65 217.46 452.99 240.95 430.08 256.6 405.85 276.64 368.71 275.29 345.37"/><polygon class="cls-2" points="329.57 552.6 327.89 536.16 315.32 510.85 298.11 482.37 279.53 460.01 265.43 447.97 264.23 446.95 258.56 453.18 268.73 484.38 283.57 509.12 308.03 543.51 329.57 552.6"/><polygon class="cls-1" points="232.62 478.79 216.43 475.46 188.52 479.85 156.18 487.72 129.27 498.73 113.56 508.56 112.22 509.4 116.47 516.68 149.28 516.34 177.33 509.62 217.48 496.61 232.62 478.79"/><polygon class="cls-1" points="323.99 552.56 322.07 536.14 309.14 511.02 291.52 482.79 272.63 460.69 258.35 448.86 257.14 447.86 251.55 454.17 262.18 485.22 277.36 509.74 302.32 543.78 323.99 552.56"/></g></svg>