<svg id="Layer_1" data-name="Layer 1" xmlns="http://www.w3.org/2000/svg" xmlns:xlink="http://www.w3.org/1999/xlink" viewBox="0 0 288 288"><defs><style>.cls-1{fill:none;}.cls-2{clip-path:url(#clip-path);}.cls-3{clip-path:url(#clip-path-2);}.cls-4{fill:#ffbf00;}.cls-5{fill:#141011;}</style><clipPath id="clip-path"><rect class="cls-1" x="6.46" y="50.57" width="273.61" height="141.53"/></clipPath><clipPath id="clip-path-2"><rect class="cls-1" x="6.46" y="50.57" width="273.61" height="141.53"/></clipPath></defs><g id="Artwork_84" data-name="Artwork 84"><g class="cls-2"><g class="cls-3"><path class="cls-4" d="M38.07,109.86,56,129.7l27,24.05,27.1,8.46,16.67,5.26,36.73-2.41,32-8.37s34.71-18.92,35.62-19.56,24.27-23.71,25-24.13S266.26,97.83,267,96.73s3-8.61,3.42-9.26c.34-.48,2.08-4.9,3-7.25l-8.69-3.56-6.11,2.67-32.83,21.4s-11.5,8.86-19.39,11.41-21.83,12.59-60.58,13.72L125,123.75l-21-4.62L78.89,106.22,60.43,94.37S49.31,86.56,42.58,84L41,82.33l-9.21,7.19Z"/><path d="M280.08,77.31l-5.73-4.91-4-2.21-5.62,6.47c.81.21,5.22,2,8.72,3.47-.91,2.33-2.68,6.85-3,7.34-.47.65-2.71,8.17-3.42,9.26S256.72,112.57,256,113s-24,23.49-25,24.13-35.62,19.56-35.62,19.56l-32,8.37-36.73,2.41-16.67-5.26L83,153.75,56,129.7l-18-19.84L31.74,89.52,41,82.33l-9.66-19L29.17,50.57,6.46,53.79,23.79,77.66l4,12-.11,0L28.44,92,27,107.77l2.22,10.44,9,23.61L50.5,156.59l23.35,17.06S90.7,184.1,96.29,184.72s37.48,7.38,37.48,7.38L165,191s21.66-5.18,23.17-5.28,25.52-10.16,25.52-10.16l21.17-14.9,18.91-18.43,11-16.89a122.15,122.15,0,0,0,7.11-14.09c.83-2.58,4.79-18.49,4.79-18.49L277.88,82Z"/><polygon class="cls-5" points="42.81 98.79 45.31 103.4 48.41 104.66 50.02 103.83 47.86 101.71 45.95 99.15 43.56 97.25 42.81 98.79"/><path class="cls-5" d="M62.64,117.31l2.42,2.46,4.44,2.72,4,1,.21-1s-2.13-1.44-2.62-1.63S67.46,119,67.46,119l-1.8-1.43Z"/><path class="cls-5" d="M87.69,132.6l2.77.07,5.42,1.26-.37-2.14-3.37-.88s-4.24-2.38-5-2.07.5,3.76.5,3.76"/><path class="cls-5" d="M120.74,139.08l-2.75-.26-5.25-1.44.13,1.81,3.25,1s3,1.12,3.78.91.84-2,.84-2"/><path class="cls-5" d="M133.89,143.27l8.47.13,1.35-.91s-7.19-1.07-8.05-1.1-1.77,1.88-1.77,1.88"/><path class="cls-5" d="M153.8,143.19c.84,0,8.52-.76,8.52-.76l-.92-2.06-4.79.24-2.74.89Z"/><path class="cls-5" d="M173.6,141.68c.67,0,11.1-3.23,11.1-3.23l-.61-1.54-4.41.65a12.55,12.55,0,0,1-1.89.93c-.86.3-2.88.21-4.59.64s-1.91,1.44-1.91,1.44l.46.86Z"/><path class="cls-5" d="M191.9,135.9l6.88-3.08s3.32-2.55,2.64-2.58l-3.37-.15s-1.39,1.12-2.61,1.91a25.28,25.28,0,0,1-2.93,1.56c-1.21.62-1.21.62-1.57,1.11s1,1.23,1,1.23"/><path class="cls-5" d="M210.29,127.92l3.83-2.7,1.77-1.78-2.34-.61s-3.28,1.72-3.65,2.38a25.32,25.32,0,0,1-2,2.44Z"/><path class="cls-5" d="M223.89,117.88s-.6,2.17.61,1.38,4.33-2.51,4.33-2.51l3-3.08L231,113s.41-1.67-1.52-.06-1.75,1.44-2.29,2.26a20.52,20.52,0,0,1-3.32,2.72"/><path class="cls-5" d="M239.29,108.94l8.41-7.4-.31-2.37-2.69,1.57-1.9,1.09a4.2,4.2,0,0,1-1.63,2.63l-1.39,1a20.52,20.52,0,0,0-1.83,3.3c0,.5-.17,0,1.34.23"/><path class="cls-5" d="M255.15,97.14,260,89.76l-.1-1.52s-2.77,1.57-3,2.06a9.34,9.34,0,0,1-.73,1.32,4.71,4.71,0,0,1-1.3,2.81,6.05,6.05,0,0,0-1.62,2.29c-.19.5,1.84.42,1.84.42"/></g></g></g></svg>