<svg id="Layer_1" data-name="Layer 1" xmlns="http://www.w3.org/2000/svg" xmlns:xlink="http://www.w3.org/1999/xlink" viewBox="0 0 288 288"><defs><style>.cls-1{fill:none;}.cls-2{clip-path:url(#clip-path);}.cls-3{fill:#ffbf00;}.cls-4{fill:#fff;}.cls-5{clip-path:url(#clip-path-2);}</style><clipPath id="clip-path"><rect class="cls-1" x="1.1" y="75.07" width="280.42" height="187.36"/></clipPath><clipPath id="clip-path-2"><rect class="cls-1" x="1.1" y="75.07" width="280.42" height="187.36"/></clipPath></defs><g id="Artwork_83" data-name="Artwork 83"><g class="cls-2"><polygon class="cls-3" points="86.2 75.07 63.97 81.61 42.2 90.53 22.2 99.41 39.73 108.7 60.36 115.97 79.29 126.84 98.94 136.07 118.79 144.8 140.8 155.61 159.04 162.75 178.18 173.2 198.33 180.47 217.85 169.54 239.54 154.73 262.31 142.04 240.64 134.41 219.06 124.55 196.87 116.25 174.77 107.72 152.94 98.5 130.81 90.03 108.38 82.34 86.22 75.07 86.2 75.07"/><polygon class="cls-4" points="159.96 111.97 181.36 110.32 218.09 124.21 231.06 129.7 209.84 132.58 201.64 129.26 159.62 112.76 158.22 112.41 159.96 111.97"/><polygon class="cls-4" points="79.68 126.49 98.98 123.94 133.04 139.86 148.57 147.45 129.32 150.32 115.72 143.7 78.91 127.38 78.13 126.65 79.68 126.49"/><polygon class="cls-4" points="211.89 138.08 154.85 150.52 104.6 126.72 160.82 117.39 211.89 138.08"/><polygon points="171.05 120.33 157.18 116.64 151.34 115.47 142.37 112.35 108.31 95.95 90.75 90.55 83.77 94.03 55.93 104.33 50.51 102.19 90.3 86.39 109.7 92.71 146.6 108.59 153.37 111.52 159.29 112.73 215.7 134.88 227.14 140.6 235.91 143.58 171.05 120.33"/><g class="cls-5"><path class="cls-3" d="M268,158.78l-3.08-13.67-21.54,14-21.81,13.1-21,13.89-1.5,24.6.86,27.46C210,229.47,251,179.06,269,161.56Z"/><path d="M200.39,262.43l17.83-14.65,19.88-13.56,18.72-15.28,24.7-17.33-5.13-19.52L269,161.56c-18,17.5-59,67.91-69.12,76.56l.2,3.68Z"/><polygon class="cls-3" points="194.26 238.63 194.18 236.15 194.46 209.5 194.3 186.2 175.78 178.5 156.85 168.97 137.49 159.59 117.69 150.5 97.39 142.47 78.07 132.35 58.97 121.78 38.85 113.36 18.61 103.92 15.08 116.04 11.33 128.89 1.1 154.64 21.88 164.7 41.49 175.24 60.84 186.22 79.34 198.75 99.74 207.87 118.49 219.95 137.63 231.33 158.16 240.22 177.27 251.67 195.04 262.43 194.26 238.63"/></g></g></g></svg>