<svg id="Layer_1" data-name="Layer 1" xmlns="http://www.w3.org/2000/svg" viewBox="0 0 288 288"><defs><style>.cls-1{fill:#fecf01;}.cls-2{fill:#070606;}.cls-3{fill:#fff;}</style></defs><path class="cls-1" d="M202.89,156.23c-.14-5.47-2.36-28.13-1.58-34.18s15.05-13.7,15.05-13.7l10.23-9,15.11-7.82s-5.41-19.58-8.23-29c-9,2.44-31.14,4.08-31.14,4.08s-13-2.94-19.56-10.13c-3.37-3.66-10-24.66-10-24.66H117.58s-.29,5.78-6.2,15.21-14.6,15.15-23.1,18.6C80.19,69,58.2,63.24,58.2,63.24L49.49,77.36l-3.26,21s16.13,8.57,20.07,9.7,23.56,28.8,23.56,28.8,1.24,21.2-2.14,36.41-28.08,33.9-28.08,33.9l17.17,25.49s15.11-7.2,21-8.11,17.17,2,24.23,5.63,16.43,23,16.43,23L152,256.13S161,238.7,166,233s33.24-9,33.24-9l21.05,11.81,19.53-27.28-24.24-17.77S203,161.71,202.89,156.23Z"/><polygon class="cls-2" points="47.91 77.3 47.87 77.36 47.85 77.51 47.91 77.3"/><path class="cls-2" d="M216.43,108.25l10.23-9,15.11-7.82s0-.61-2.87-10.11l-22.59,9.4c-21.3,26.91-22.69,52-22.69,52s4.4,22.14,11.64,36.39,15.6,24.58,23.47,28.46a102,102,0,0,1-9.66,18.14c-4.32-1.74-14.57-6.34-19.58-6.63-6.15-.36-19.75.94-25.73,2.91-18.18,2.29-23.38,14.37-27,17.18-11-8.8-29.2-25-47.15-25.32L72,225.38l4.86,7.21s15.11-7.2,21.05-8.11,17.17,2,24.23,5.63,16.43,23,16.43,23L152,256s9.09-17.43,14.09-23.1,33.24-9,33.24-9l21.05,11.81,19.53-27.28-20.47-18.21s-16.5-34.1-16.64-39.57,1.67-19.71,2.44-25.76S216.43,108.25,216.43,108.25Z"/><path class="cls-3" d="M103.15,188.67a179,179,0,0,0,5.36-26.08l-6.09-.7a174.76,174.76,0,0,1-5.13,25Z"/><path class="cls-3" d="M102.46,123.8,96.73,126c.46,1.22,3.2,6.79,3.44,7.86h0v0h0v0h0v0h0v.06h0v0h0v0h0v0h0v0h0v.05h0v0h0v0h0l0,.1h0v0h0a95.42,95.42,0,0,1,1.84,16.1l6.13-.19a101.26,101.26,0,0,0-2.08-17.72C105.89,131.26,103.06,125.36,102.46,123.8Z"/><path class="cls-3" d="M108.18,69.8h0l-.38.25h0l-.13.09h0l0,0h0l0,0h0l0,0h-.14l0,0H107l0,0h0l0,0h0l-.13.09h-.1c-1.78,1.15-8.77,4-10.68,5.08h0l0,0h0l0,0h0l3,5.37c7.69-4.23,18.87-10.44,23.11-15l-4.49-4.19A54.15,54.15,0,0,1,108.18,69.8Z"/><path class="cls-3" d="M83.84,95.81l-3.51-6.12c3.48-1.12,6.56-2.29,8-2.87l-2.25-5.71a110,110,0,0,1-12.06,4h0l-.49.13H73.5l-.13,0h0l0,0h0l-.1,0h-.31l-.07,0h0l0,0h-3c-.48.74-.75,1-.75,1.68.85,1,2.06,2.35,3.52,4.07,3.51,4.37,11.3,13.44,14.73,18.45h0l0,0h0l0,0h0l0,0h0l0,0v0l0,0h0v0l0,0h0v0h0v0l0,0h0l0,0h0l0,0h0v0h0l0,0h0l0,0h0l0,0h0l0,0h0l0,0h0l0,0h0l0,0h0l.77,1.13,5.1-3.4C90.2,103.55,88.76,101.93,83.84,95.81Z"/><path class="cls-3" d="M191.46,112c0-.15.1-.3.16-.45h0v-.07h0l0-.07h0v0h0v0h0l0-.07h0v0h0v0h0l0,0h0v0h0v0h0v0h0v0h0v0h0v0h0v0h0v0h0v0h0v0h0v0h0v0h0v0h0v0h0v0h0v0h0v0h0v0h0v0h0v0h0v0h0v0h0v0h0v0h0l0-.1h0v0h0v0h0l.06-.14h0c.49-1.34,1-2.69,1.57-4h0l.06-.14h0l.06-.14h0l0,0h0v0h0l0-.06h0l0-.08h0l0-.06h0v0h0v0h0v0h0v0h0l0,0h0s-1.23,3.31-1.23,3.3h0v0h0l0-.06h0v0h0v0h0v-.06h0v0h0v0h0v0h0v-.08h0v-.1h0v0h0v0h0v0h0v-.06h0v-.06h0l0,0h0v-.06h0v0h0v0h0l0,0h0v0h0l0,0h0v0h0l0-.07h0l0,0h0v0h0v0h0l0,0h0v0h0l0,0h0v0h0l0,0v0h0v0h0l0,0h0l0-.08h0v0h0v0h0l0-.11h0c1.41-3.24,7.72-14.37,9.51-17.64q2.14-3.24,4.6-6.35c-1.9.15-3.73.22-5.49.22h-1.94a52.92,52.92,0,0,1-12.23-1.73l-1.59,5.93a56.5,56.5,0,0,0,7.95,1.5c-3.19,6-6.47,14.88-8.84,21.62Z"/><path class="cls-3" d="M169.78,78.61l3.78-4.84A41,41,0,0,1,162.37,60h0v0h0v0h0v0h0c-.37-.72-.7-1.43-1-2.12l-5.61,2.47A47.83,47.83,0,0,0,169.78,78.61Z"/><path class="cls-3" d="M192.73,176.94h0v-.09h0v-.1h0v0h0v0h0v0h0v0h0v0h0v0h0l0,0h0c-1.83-4.62-3.48-9.55-4.9-14.23L181.77,164A169.76,169.76,0,0,0,189,184l5.6-2.53C194,180,193.35,178.49,192.73,176.94Z"/><path class="cls-3" d="M153.19,208.51l2.72,5.5c1.6-.79,3.37-1.57,5.27-2.34h0l.36-.14h.08l.06,0h.61l0,0h.52l0,0h0l0,0h.08l0,0h0l.08,0h0c3.67-1.38,7.74-2.69,11.94-3.87l-1.67-5.91A125.65,125.65,0,0,0,153.19,208.51Z"/><path class="cls-3" d="M183.14,145.36h0v0h0v0h0c0-.38,2.13-9.32,3-14.14h0v0h0l0-.1h0v0h0v0h0v0h0c.32-1.69.72-3.59,1.2-5.65l-6-1.39c-2.06,8.84-4.4,20.65-4.42,20.9l-.09.93.19.92s.5,2.32,1.4,6l6-1.45C183.7,147.93,183.24,145.8,183.14,145.36Z"/><path class="cls-3" d="M122.05,208.77a146.61,146.61,0,0,1,18.73,8.47h0l.07,0h0l0,0h0l.15.08h0l.06,0h0l0,0h0l0,0h0l.06,0h0l0,0h0l.06,0h0l0,0h.13l0,0h.24l0,0H142l0,0h.13l0,0h.06l0,0h0v0h0l0,0h.06l0,0h0l0,0h0l.06,0h0l0,0h0l0,0h0l.06,0h0l0,0h0l.06,0h.06l0,0h0l.06,0h0l.67.41,3.26-5.2A131.86,131.86,0,0,0,124.07,203Z"/><path class="cls-3" d="M197.36,187.8l-5.12,2.87,3.82,5.4-10-.35-.11,6.14,1.31,0h.33c3.9.1,7.53.34,10.66.72l4.53.72a7.41,7.41,0,0,0,2.52-4.59C203.85,197.87,197.36,187.8,197.36,187.8Z"/><path class="cls-3" d="M147.83,48.47h-.07c-5.82,0-13,.36-18.71,1.71h0l-.07,0h-.41l-.07,0h0l-.92.24,1.67,5.91c4.31-1.22,10.75-1.87,18.61-1.87h0c1.21,0,2.37,0,3.43,0l.15-6.13c-1.11,0-2.32-.05-3.59-.05Z"/><path class="cls-3" d="M101.18,192.35H95.89l-2.48,5.14c-.54,1.28-1.11,2.55-1.71,3.83a7.11,7.11,0,0,0,.74,2.28c.73,0,1.48.06,2.24.11h13.91l.07,0h.59l1.31-6a88.47,88.47,0,0,0-11.25-1.82Z"/></svg>