<svg id="Layer_1" data-name="Layer 1" xmlns="http://www.w3.org/2000/svg" xmlns:xlink="http://www.w3.org/1999/xlink" viewBox="0 0 288 288"><defs><style>.cls-1,.cls-10,.cls-11,.cls-12,.cls-13,.cls-14,.cls-15,.cls-17,.cls-18,.cls-19,.cls-20,.cls-21,.cls-22,.cls-23,.cls-24,.cls-25,.cls-26,.cls-27,.cls-28,.cls-29,.cls-30,.cls-31,.cls-4,.cls-5,.cls-6,.cls-7,.cls-8,.cls-9{fill:none;}.cls-2{clip-path:url(#clip-path);}.cls-3{clip-path:url(#clip-path-2);}.cls-10,.cls-11,.cls-12,.cls-13,.cls-14,.cls-15,.cls-4,.cls-5,.cls-6,.cls-7,.cls-8,.cls-9{stroke:#000;}.cls-10,.cls-11,.cls-12,.cls-13,.cls-14,.cls-15,.cls-17,.cls-18,.cls-19,.cls-20,.cls-21,.cls-22,.cls-23,.cls-24,.cls-25,.cls-26,.cls-27,.cls-28,.cls-29,.cls-30,.cls-31,.cls-4,.cls-5,.cls-6,.cls-7,.cls-8,.cls-9{stroke-miterlimit:10;}.cls-4{stroke-width:3.1px;}.cls-21,.cls-5{stroke-width:1.51px;}.cls-22,.cls-6{stroke-width:1.46px;}.cls-23,.cls-7{stroke-width:1.69px;}.cls-24,.cls-8{stroke-width:1.43px;}.cls-25,.cls-9{stroke-width:1.38px;}.cls-10,.cls-26{stroke-width:1.34px;}.cls-11,.cls-27{stroke-width:1.18px;}.cls-12,.cls-28{stroke-width:1.41px;}.cls-13,.cls-29{stroke-width:1.59px;}.cls-14,.cls-30{stroke-width:1.95px;}.cls-15,.cls-31{stroke-width:1.81px;}.cls-16{fill:#ffbf00;}.cls-17,.cls-18,.cls-19,.cls-20,.cls-21,.cls-22,.cls-23,.cls-24,.cls-25,.cls-26,.cls-27,.cls-28,.cls-29,.cls-30,.cls-31{stroke:#febf07;}.cls-17{stroke-width:2.06px;}.cls-18{stroke-width:1.91px;}.cls-19{stroke-width:1.81px;}.cls-20{stroke-width:1.68px;}</style><clipPath id="clip-path"><rect class="cls-1" x="25.05" y="10.21" width="271.65" height="267.59"/></clipPath><clipPath id="clip-path-2"><rect class="cls-1" x="25.05" y="10.2" width="271.65" height="267.59"/></clipPath></defs><g id="Artwork_71" data-name="Artwork 71"><g class="cls-2"><g class="cls-3"><path d="M92,236.68c-.57-5.94-3.62-11.54-6-16.35-4.45-9.13-8.54-18.16-8.54-18.16A76.84,76.84,0,0,1,69.46,215c-4.59,5.67-8.59,13.31-8.85,19.12-.7,15.47,5.45,21,14.58,21.41,3.43.15,9.41-3.07,9.41-3.07,4.57-3.63,7-6.15,7.44-15.82"/><path d="M147.64,120.19c7.12,2.57,10.14,11.07,19.35,17.1,5.46,3.57,6.77,8.63,10.16,14.86,10.9,20,8,55.4,9.9,37.73.3-2.77,4.86-20.37-5.77-40.47-5.78-10.93-24.76-32.8-31.6-37.21,0,0-.86,8.31-2,8"/><path class="cls-4" d="M147.64,120.19c7.12,2.57,10.14,11.07,19.35,17.1,5.46,3.57,6.77,8.63,10.16,14.86,10.9,20,8,55.4,9.9,37.73.3-2.77,4.86-20.37-5.77-40.47-5.78-10.93-24.76-32.8-31.6-37.21C149.68,112.2,148.82,120.51,147.64,120.19Z"/><path d="M202.43,175.38c-.73-.46-6.17-2.38-11.24-6.26-2.28-1.74-5.85-4.74-5.69-5.35s3.95,1.32,6.8,3.08c5.09,3.15,51,35,10.13,8.53"/><path class="cls-5" d="M202.43,175.38c-.73-.46-6.17-2.38-11.24-6.26-2.28-1.74-5.85-4.74-5.69-5.35s3.95,1.32,6.8,3.08C197.39,170,243.28,201.81,202.43,175.38Z"/><path d="M198.06,160c-.73-.31-5.81-1-11.09-3.73-2.38-1.25-6.16-3.48-6.19-4.15s3.67.4,6.53,1.52c5.1,2,52,23.72,10.75,6.36"/><path class="cls-6" d="M198.06,160c-.73-.31-5.81-1-11.09-3.73-2.38-1.25-6.16-3.48-6.19-4.15s3.67.4,6.53,1.52C192.41,155.64,239.32,177.34,198.06,160Z"/><path d="M195.93,146.69c-.93-.29-7.63-.73-14.33-3.32-3-1.16-7.78-3.27-7.73-4s4.85.25,8.52,1.27c6.55,1.82,66.43,21.86,13.54,6"/><path class="cls-7" d="M195.93,146.69c-.93-.29-7.63-.73-14.33-3.32-3-1.16-7.78-3.27-7.73-4s4.85.25,8.52,1.27C188.94,142.51,248.82,162.55,195.93,146.69Z"/><path d="M186.14,135c-.94-.28-7.64-.72-14.34-3.31-3-1.16-7.77-3.27-7.73-4s4.85.25,8.53,1.27c6.55,1.82,66.43,21.85,13.54,6"/><path class="cls-7" d="M186.14,135c-.94-.28-7.64-.72-14.34-3.31-3-1.16-7.77-3.27-7.73-4s4.85.25,8.53,1.27C179.15,130.83,239,150.86,186.14,135Z"/><path d="M173.21,123.35c-.93-.28-7.63-.72-14.33-3.31-3-1.16-7.78-3.27-7.73-4s4.85.24,8.52,1.26c6.56,1.83,66.43,21.86,13.54,6"/><path class="cls-7" d="M173.21,123.35c-.93-.28-7.63-.72-14.33-3.31-3-1.16-7.78-3.27-7.73-4s4.85.24,8.52,1.26C166.23,119.18,226.1,139.21,173.21,123.35Z"/><path d="M205.21,188c-.62-.52-5.42-2.87-9.68-7.08-1.91-1.9-4.88-5.12-4.67-5.7s3.49,1.64,5.93,3.6c4.35,3.51,43.2,38.47,8.42,9.18"/><path class="cls-8" d="M205.21,188c-.62-.52-5.42-2.87-9.68-7.08-1.91-1.9-4.88-5.12-4.67-5.7s3.49,1.64,5.93,3.6C201.14,182.3,240,217.26,205.21,188Z"/><path d="M196.07,193.27c-.34-.66-3.78-4.53-5.82-9.58-.92-2.27-2.2-6-1.74-6.37s2.55,2.76,3.93,5.32c2.46,4.55,22.75,48,3.63,10.63"/><path class="cls-9" d="M196.07,193.27c-.34-.66-3.78-4.53-5.82-9.58-.92-2.27-2.2-6-1.74-6.37s2.55,2.76,3.93,5.32C194.9,187.19,215.19,230.66,196.07,193.27Z"/><path d="M160.15,141.32c.21-.55,2.9-3.3,3.94-7.73.46-2,1-5.36.46-5.88s-2,1.93-2.89,4c-1.56,3.78-13.22,41-1.51,9.56"/><path class="cls-10" d="M160.15,141.32c.21-.55,2.9-3.3,3.94-7.73.46-2,1-5.36.46-5.88s-2,1.93-2.89,4C160.1,135.54,148.44,172.74,160.15,141.32Z"/><path d="M151,129.9a17.61,17.61,0,0,0,2.71-6.87c.24-1.81.44-4.89-.06-5.41s-1.53,1.64-2.11,3.54c-1,3.38-8,37-.54,8.74"/><path class="cls-11" d="M151,129.9a17.61,17.61,0,0,0,2.71-6.87c.24-1.81.44-4.89-.06-5.41s-1.53,1.64-2.11,3.54C150.56,124.54,143.59,158.13,151,129.9Z"/><path d="M169.52,151.12c.25-.63,3.33-4.3,4.67-9.14.6-2.18,1.34-5.78.77-6.13s-2.29,2.61-3.35,5c-1.89,4.36-16.4,46-2.09,10.23"/><path class="cls-12" d="M169.52,151.12c.25-.63,3.33-4.3,4.67-9.14.6-2.18,1.34-5.78.77-6.13s-2.29,2.61-3.35,5C169.72,145.25,155.21,186.88,169.52,151.12Z"/><path d="M178.15,169.12c.19-.74,3.06-5.14,3.88-10.82.37-2.55.7-6.75,0-7.12s-2.16,3.14-3,6c-1.48,5.14-11.77,54-.92,11.93"/><path class="cls-13" d="M178.15,169.12c.19-.74,3.06-5.14,3.88-10.82.37-2.55.7-6.75,0-7.12s-2.16,3.14-3,6C177.59,162.33,167.3,211.22,178.15,169.12Z"/><path d="M183.19,188.11c.18-.84,3-6.08,3.69-12.37.31-2.83.52-7.44-.19-7.74s-2.14,3.75-2.91,7c-1.37,5.81-10.54,60.55-.59,13.1"/><path class="cls-7" d="M183.19,188.11c.18-.84,3-6.08,3.69-12.37.31-2.83.52-7.44-.19-7.74s-2.14,3.75-2.91,7C182.41,180.82,173.24,235.56,183.19,188.11Z"/><path d="M157.81,130.24c17.67-19.69,13-11.4,16.63-13.29a46.1,46.1,0,0,1,17.94-5.18c21.9-1.72,60.64,22.22,41.3,9.72-3-2-22.33-17.68-44.3-16.33-1.78.1-25.07,4.31-36.28,17.74,0,0,5.06,6.08,4.71,7.34"/><path class="cls-4" d="M157.81,130.24c17.67-19.69,13-11.4,16.63-13.29a46.1,46.1,0,0,1,17.94-5.18c21.9-1.72,60.64,22.22,41.3,9.72-3-2-22.33-17.68-44.3-16.33-1.78.1-25.07,4.31-36.28,17.74C153.1,122.9,158.16,129,157.81,130.24Z"/><path d="M233.65,88.92c-.3,1-.77,8.88-3.58,15.55-1.26,3-3.56,7.59-4.29,7.14s.24-5.77,1.35-9.65c2-6.93,23.72-68.33,6.52-13"/><path class="cls-14" d="M233.65,88.92c-.3,1-.77,8.88-3.58,15.55-1.26,3-3.56,7.59-4.29,7.14s.24-5.77,1.35-9.65C229.11,95,250.85,33.63,233.65,88.92Z"/><path d="M217.65,82c-.3,1-.77,8.89-3.58,15.56-1.26,3-3.56,7.58-4.29,7.14S210,98.9,211.13,95c2-6.93,23.72-68.33,6.52-13"/><path class="cls-14" d="M217.65,82c-.3,1-.77,8.89-3.58,15.56-1.26,3-3.56,7.58-4.29,7.14S210,98.9,211.13,95C213.11,88.09,234.85,26.69,217.65,82Z"/><path d="M201.17,78.71c-.3,1-.77,8.88-3.58,15.55-1.26,3-3.55,7.59-4.3,7.14s.25-5.77,1.36-9.66c2-6.93,23.72-68.32,6.52-13"/><path class="cls-14" d="M201.17,78.71c-.3,1-.77,8.88-3.58,15.55-1.26,3-3.55,7.59-4.3,7.14s.25-5.77,1.36-9.66C196.63,84.81,218.37,23.42,201.17,78.71Z"/><path d="M183.77,85.35c-.31,1-.77,8.89-3.58,15.56-1.27,3-3.56,7.59-4.3,7.14s.25-5.77,1.36-9.66c2-6.92,23.72-68.32,6.52-13"/><path class="cls-14" d="M183.77,85.35c-.31,1-.77,8.89-3.58,15.56-1.27,3-3.56,7.59-4.3,7.14s.25-5.77,1.36-9.66C179.23,91.47,201,30.07,183.77,85.35Z"/><path d="M172.13,81.9c-.28,4.22-6.78,22.26-9.86,25.19-2.36,2.24-3.55,7.59-4.3,7.15s-1-6.4,1.36-9.66"/><path class="cls-14" d="M172.13,81.9c-.28,4.22-6.78,22.26-9.86,25.19-2.36,2.24-3.55,7.59-4.3,7.15s-1-6.4,1.36-9.66"/><path d="M248.23,97.81c-.63.72-3.7,7.32-8.73,11.92-2.26,2.07-6.09,5.1-6.7,4.42s2.15-4.86,4.54-7.74c4.28-5.17,46.43-49.18,10.89-8.6"/><path class="cls-14" d="M248.23,97.81c-.63.72-3.7,7.32-8.73,11.92-2.26,2.07-6.09,5.1-6.7,4.42s2.15-4.86,4.54-7.74C241.62,101.24,283.77,57.23,248.23,97.81Z"/><path d="M263.88,114.2c-.93.24-6.79,3.82-13.74,4.82-3.13.45-8.21.83-8.52,0s4.21-2.69,7.81-3.71c6.44-1.83,67-14.46,14.45-1.09"/><path class="cls-14" d="M263.88,114.2c-.93.24-6.79,3.82-13.74,4.82-3.13.45-8.21.83-8.52,0s4.21-2.69,7.81-3.71C255.87,113.46,316.43,100.83,263.88,114.2Z"/><path d="M271.57,135.19c-1-.27-8.32-.32-15.64-3-3.3-1.2-8.51-3.43-8.47-4.26s5.29-.06,9.3.92c7.15,1.74,72.57,21.84,14.81,6.33"/><path class="cls-14" d="M271.57,135.19c-1-.27-8.32-.32-15.64-3-3.3-1.2-8.51-3.43-8.47-4.26s5.29-.06,9.3.92C263.91,130.6,329.33,150.7,271.57,135.19Z"/><path d="M202.41,143.85c-.74-.93-4.76-8.66-10.52-15-2.59-2.84-6.91-7.16-7.44-6.67s2.85,5.65,5.69,9.38c5.06,6.64,54.07,65.16,12.27,12.27"/><path class="cls-14" d="M202.41,143.85c-.74-.93-4.76-8.66-10.52-15-2.59-2.84-6.91-7.16-7.44-6.67s2.85,5.65,5.69,9.38C195.2,138.22,244.21,196.74,202.41,143.85Z"/><path d="M188.47,150.54c-.73-.95-4.66-8.72-10.35-15.11-2.56-2.87-6.84-7.26-7.37-6.77s2.77,5.67,5.57,9.43c5,6.71,53.34,65.86,12.15,12.45"/><path class="cls-14" d="M188.47,150.54c-.73-.95-4.66-8.72-10.35-15.11-2.56-2.87-6.84-7.26-7.37-6.77s2.77,5.67,5.57,9.43C181.31,144.8,229.66,204,188.47,150.54Z"/><path d="M216.66,142.59c-.7-.94-4.66-8.64-10-15-2.42-2.85-6.42-7.18-6.85-6.69s2.82,5.64,5.51,9.36c4.79,6.64,50.81,65.17,11.38,12.29"/><path class="cls-15" d="M216.66,142.59c-.7-.94-4.66-8.64-10-15-2.42-2.85-6.42-7.18-6.85-6.69s2.82,5.64,5.51,9.36C210.07,136.94,256.09,195.47,216.66,142.59Z"/><path d="M236.85,143.14c-.87-.77-6.19-7.68-12.82-12.71-3-2.26-7.88-5.61-8.27-5s3.8,5.07,7.2,8.18c6.06,5.54,63.49,53.22,13.89,9.5"/><path class="cls-14" d="M236.85,143.14c-.87-.77-6.19-7.68-12.82-12.71-3-2.26-7.88-5.61-8.27-5s3.8,5.07,7.2,8.18C229,139.18,286.45,186.86,236.85,143.14Z"/><path d="M255.3,144.63c-.92-.7-6.67-7.19-13.56-11.64-3.1-2-8.15-4.92-8.48-4.24s4.12,4.78,7.69,7.6c6.37,5,66.34,47.8,14.35,8.28"/><path class="cls-14" d="M255.3,144.63c-.92-.7-6.67-7.19-13.56-11.64-3.1-2-8.15-4.92-8.48-4.24s4.12,4.78,7.69,7.6C247.32,141.38,307.29,184.15,255.3,144.63Z"/><path d="M177.17,275.13c-.55-1.14,1.29-12.28,1.29-12.28l-25-3.31-23.5,6-2,3.16v9.13l18.7-1.32Z"/><path d="M159.24,160.18c-.3,1.19,2.36,28.37,2.36,28.37l-9-6.3-13-3.27V174.8l3.06-12.64,6.27-.44Z"/><path d="M176.88,257.19c.06-4.81,0-12.31-.92-14.32a3.7,3.7,0,0,1-.19-.59l-1.86-7.89c-.48-2-2.76-3.47-5.35-3.34a6.6,6.6,0,0,1-.77,0l-14.35.84c-.3,0-7.07-2.33-7.36-2.39l-13.58-2.93-.95,1.35-3.4,24.69a44,44,0,0,0-.12,6.93l21.54-4.62a6.21,6.21,0,0,1,1.61,0Z"/><polygon points="173.47 224.42 169.78 213.02 161.98 195.92 159.38 198.89 161.98 195.92 151.29 189.83 137.49 184.13 136.67 199.72 132.79 218.87 154.71 224.79 173.47 224.42"/><path class="cls-16" d="M89.91,236.68c-.57-5.94-3.62-11.54-6-16.35-4.45-9.13-8.54-18.16-8.54-18.16A76.84,76.84,0,0,1,67.33,215c-4.59,5.67-8.59,13.31-8.85,19.12-.7,15.47,5.45,21,14.58,21.41,3.43.15,9.41-3.07,9.41-3.07,4.57-3.63,7-6.15,7.44-15.82"/><path d="M186.73,141.34s-11.94,9.43-13.71,9.44-7.56.5-10.69-1.7c-2.53-1.78-5.63-2.39-7.12-5.36a22.24,22.24,0,0,1-1.85-7.63c-.49-5,.09-10.66,3.36-14.65a11.83,11.83,0,0,1,7.59-4.15c5.62-.79,10.85-1.9,15.62,1.93a21.16,21.16,0,0,1,7.17,11.89c.46,2.22-.37,10.23-.37,10.23"/><path d="M159.65,166s-5.26-.07-7-.06-7.55.51-10.68-1.69c-2.53-1.78-5.63-2.4-7.12-5.36a22.35,22.35,0,0,1-1.85-7.64c-.49-5,.09-10.66,3.36-14.65a11.87,11.87,0,0,1,7.59-4.15c5.62-.79,10.85-1.9,15.62,1.93a21.2,21.2,0,0,1,7.17,11.89c.46,2.22-.37,10.23-.37,10.23"/><path d="M152.86,130.62s-9.48,12.11-11.45,12.15-8.34.41-11.77-.91c-2.76-1.06-6.17-1.4-7.78-3.22a8.9,8.9,0,0,1-1.93-4.7c-.48-3.06,8.68-9.26,12.34-11.78,2.14-1.47-3.29.3,0,0,6.21-.57,12-1.33,17.21,1,3.94,1.74,6.78,4.48,7.75,7.26.48,1.37-.55,6.34-.55,6.34"/><path d="M183,150.05s-11.94,9.43-13.72,9.44-7.55.5-10.68-1.7c-2.53-1.77-5.63-2.4-7.12-5.36a22.35,22.35,0,0,1-1.85-7.64c-.49-4.95.09-10.65,3.35-14.64a11.81,11.81,0,0,1,7.6-4.15c5.62-.79,10.85-1.9,15.62,1.93a21.09,21.09,0,0,1,7.16,11.89c.47,2.22-.36,10.23-.36,10.23"/><path class="cls-16" d="M146.32,128.17a63.24,63.24,0,0,0-1.26-22.42A48.87,48.87,0,0,0,136.51,88c-14.06-18.41-60.14-32-36.7-25.6,3.68,1,29.6,5.1,44,23.32,7.83,9.9,12.72,33.13,11.58,41,0,0-8.34.31-9.08,1.47"/><path class="cls-16" d="M125.42,39.5c-.56.93-6.44,6.86-9.7,13.76-1.46,3.1-3.46,8.13-2.59,8.4s4.36-4.26,6.63-7.86c4.06-6.43,37-66.72,5.66-14.3"/><path class="cls-17" d="M125.42,39.5c-.56.93-6.44,6.86-9.7,13.76-1.46,3.1-3.46,8.13-2.59,8.4s4.36-4.26,6.63-7.86C123.82,47.37,156.75-12.92,125.42,39.5Z"/><path class="cls-16" d="M142.13,47.19c-.56.93-6.44,6.86-9.7,13.76-1.47,3.1-3.46,8.13-2.59,8.4s4.36-4.25,6.63-7.86c4.05-6.43,37-66.71,5.66-14.3"/><path class="cls-17" d="M142.13,47.19c-.56.93-6.44,6.86-9.7,13.76-1.47,3.1-3.46,8.13-2.59,8.4s4.36-4.25,6.63-7.86C140.52,55.06,173.46-5.22,142.13,47.19Z"/><path class="cls-16" d="M156.3,57.84c-.56.92-6.44,6.85-9.7,13.75-1.47,3.11-3.46,8.14-2.59,8.41s4.36-4.26,6.63-7.87c4.06-6.43,37-66.71,5.66-14.29"/><path class="cls-17" d="M156.3,57.84c-.56.92-6.44,6.85-9.7,13.75-1.47,3.11-3.46,8.14-2.59,8.41s4.36-4.26,6.63-7.87C154.7,65.7,187.63,5.42,156.3,57.84Z"/><path class="cls-16" d="M163.32,76.19c-.56.92-6.44,6.85-9.7,13.75-1.47,3.11-3.46,8.14-2.59,8.41s4.36-4.26,6.63-7.87c4.06-6.43,37-66.71,5.66-14.29"/><path class="cls-17" d="M163.32,76.19c-.56.92-6.44,6.85-9.7,13.75-1.47,3.11-3.46,8.14-2.59,8.41s4.36-4.26,6.63-7.87C161.72,84.05,194.65,23.77,163.32,76.19Z"/><path class="cls-16" d="M161.19,117.56c.87.26,4.36-4.26,6.64-7.87,4-6.43,37-66.71,5.65-14.3"/><path class="cls-17" d="M161.19,117.56c.87.26,4.36-4.26,6.64-7.87,4-6.43,37-66.71,5.65-14.3"/><path class="cls-16" d="M108.18,34.31c-.12,1-3.15,8-3.23,15.24,0,3.24.29,8.37,1.25,8.37s2.3-5.1,2.88-9c1-7,6-71.08-.9-14.6"/><path class="cls-17" d="M108.18,34.31c-.12,1-3.15,8-3.23,15.24,0,3.24.29,8.37,1.25,8.37s2.3-5.1,2.88-9C110.13,41.92,115.05-22.17,108.18,34.31Z"/><path class="cls-16" d="M84.29,33.55c.47.89,1.77,8,5.88,14.18,1.85,2.77,5.12,7,6,6.68s-.84-5.2-2.58-8.76c-3.1-6.34-35.78-62.8-9.31-12.1"/><path class="cls-17" d="M84.29,33.55c.47.89,1.77,8,5.88,14.18,1.85,2.77,5.12,7,6,6.68s-.84-5.2-2.58-8.76C90.5,39.31,57.82-17.15,84.29,33.55Z"/><path class="cls-16" d="M62.38,42.27c.94.61,6.11,6.31,13.36,10.19,3.26,1.74,8.68,4.27,9.31,3.65s-3.67-4.19-7.27-6.65c-6.4-4.4-68.22-41.66-15.4-7.19"/><path class="cls-17" d="M62.38,42.27c.94.61,6.11,6.31,13.36,10.19,3.26,1.74,8.68,4.27,9.31,3.65s-3.67-4.19-7.27-6.65C71.38,45.06,9.56,7.8,62.38,42.27Z"/><path class="cls-16" d="M104.24,102.7c1.26-.08,10.16-2.36,19.18-2.27,4,0,10.49.39,10.47,1.15s-6.44,1.74-11.37,2.13c-8.78.7-89.24,3.37-18.28-1"/><path class="cls-17" d="M104.24,102.7c1.26-.08,10.16-2.36,19.18-2.27,4,0,10.49.39,10.47,1.15s-6.44,1.74-11.37,2.13C113.74,104.41,33.28,107.08,104.24,102.7Z"/><path class="cls-16" d="M108.8,118.36c1.26-.09,10.12-2.47,19.15-2.5,4.06,0,10.51.27,10.51,1s-6.42,1.81-11.34,2.26c-8.77.8-89.27,4.43-18.32-.79"/><path class="cls-17" d="M108.8,118.36c1.26-.09,10.12-2.47,19.15-2.5,4.06,0,10.51.27,10.51,1s-6.42,1.81-11.34,2.26C118.35,120,37.85,123.58,108.8,118.36Z"/><path class="cls-16" d="M95.21,90.62C96.44,90.51,105.28,88.2,114,88c3.94-.11,10.15,0,10.06.67s-6.4,1.75-11.22,2.26c-8.59.91-86.95,5.93-17.66-.29"/><path class="cls-18" d="M95.21,90.62C96.44,90.51,105.28,88.2,114,88c3.94-.11,10.15,0,10.06.67s-6.4,1.75-11.22,2.26C104.28,91.82,25.92,96.84,95.21,90.62Z"/><path class="cls-16" d="M80.57,75.14c1.22.15,10.39-.54,19,1.14,3.88.75,10,2.24,9.72,3s-6.66.59-11.49.1c-8.61-.86-86.49-12.44-17.24-4.23"/><path class="cls-17" d="M80.57,75.14c1.22.15,10.39-.54,19,1.14,3.88.75,10,2.24,9.72,3s-6.66.59-11.49.1C89.2,78.51,11.32,66.93,80.57,75.14Z"/><path class="cls-16" d="M66.41,61.7c1.2.23,10.35.18,18.7,2.46,3.75,1,9.6,2.94,9.28,3.68S87.74,68,83,67.14c-8.43-1.46-84.23-18.48-16.6-5.44"/><path class="cls-17" d="M66.41,61.7c1.2.23,10.35.18,18.7,2.46,3.75,1,9.6,2.94,9.28,3.68S87.74,68,83,67.14C74.58,65.68-1.22,48.66,66.41,61.7Z"/><path class="cls-16" d="M150.78,128.58a79.34,79.34,0,0,0-22.19-1.86,58.46,58.46,0,0,0-18.76,4.37c-20.3,8.52-40.93,42.35-30.93,25.07,1.56-2.7,9.69-22.18,29.84-31,11-4.8,34.53-5.64,42-3.77,0,0-1,6.47,0,7.19"/><path class="cls-16" d="M60.48,133.53c.83.54,5.71,5.83,12,9.21,2.81,1.52,7.44,3.69,7.84,3.06s-3.49-3.9-6.67-6.11C68,135.75,14,102.75,60.48,133.53"/><path class="cls-19" d="M60.48,133.53c.83.54,5.71,5.83,12,9.21,2.81,1.52,7.44,3.69,7.84,3.06s-3.49-3.9-6.67-6.11C68,135.75,14,102.75,60.48,133.53Z"/><path class="cls-16" d="M70.68,121.61c.82.54,5.7,5.83,12,9.21,2.81,1.52,7.43,3.7,7.83,3.06S87,130,83.81,127.77c-5.67-3.93-59.59-36.94-13.13-6.16"/><path class="cls-19" d="M70.68,121.61c.82.54,5.7,5.83,12,9.21,2.81,1.52,7.43,3.7,7.83,3.06S87,130,83.81,127.77C78.14,123.84,24.22,90.83,70.68,121.61Z"/><path class="cls-16" d="M83.36,112c.83.54,5.71,5.83,12,9.21,2.81,1.52,7.44,3.7,7.84,3.06s-3.49-3.9-6.67-6.11c-5.66-3.93-59.58-36.94-13.13-6.16"/><path class="cls-19" d="M83.36,112c.83.54,5.71,5.83,12,9.21,2.81,1.52,7.44,3.7,7.84,3.06s-3.49-3.9-6.67-6.11C90.83,114.25,36.91,81.24,83.36,112Z"/><path class="cls-16" d="M102.48,108.91c.82.55,5.71,5.84,12,9.22,2.81,1.52,7.43,3.69,7.83,3.05s-3.48-3.89-6.66-6.1C110,111.14,56,78.14,102.48,108.91"/><path class="cls-19" d="M102.48,108.91c.82.55,5.71,5.84,12,9.22,2.81,1.52,7.43,3.69,7.83,3.05s-3.48-3.89-6.66-6.1C110,111.14,56,78.14,102.48,108.91Z"/><path class="cls-16" d="M122.94,103.5c.82.54,5.7,5.83,12,9.21,2.81,1.52,7.43,3.69,7.83,3.06s-3.49-3.91-6.66-6.11c-5.67-3.94-59.59-36.94-13.13-6.16"/><path class="cls-19" d="M122.94,103.5c.82.54,5.7,5.83,12,9.21,2.81,1.52,7.43,3.69,7.83,3.06s-3.49-3.91-6.66-6.11C130.4,105.72,76.48,72.72,122.94,103.5Z"/><path class="cls-16" d="M52.66,146.17c1,.22,7.4,3.45,14.44,4.41,3.17.43,8.26.83,8.41.09s-4.64-2.41-8.39-3.36c-6.69-1.69-68.78-13.56-14.46-1.14"/><path class="cls-19" d="M52.66,146.17c1,.22,7.4,3.45,14.44,4.41,3.17.43,8.26.83,8.41.09s-4.64-2.41-8.39-3.36C60.43,145.62-1.66,133.75,52.66,146.17Z"/><path class="cls-16" d="M48.13,164.5c.95-.24,8.15-.35,14.84-2.75,3-1.07,7.71-3.06,7.51-3.78s-5.23,0-9,.88c-6.71,1.58-67.29,19.69-13.35,5.65"/><path class="cls-19" d="M48.13,164.5c.95-.24,8.15-.35,14.84-2.75,3-1.07,7.71-3.06,7.51-3.78s-5.23,0-9,.88C54.77,160.43-5.81,178.54,48.13,164.5Z"/><path class="cls-16" d="M53.22,182.5c.74-.64,7.15-3.92,12.1-9,2.23-2.3,5.57-6.16,5.06-6.72s-4.69,2.31-7.68,4.77c-5.32,4.39-51.68,47.38-9.48,11"/><path class="cls-19" d="M53.22,182.5c.74-.64,7.15-3.92,12.1-9,2.23-2.3,5.57-6.16,5.06-6.72s-4.69,2.31-7.68,4.77C57.38,175.92,11,218.91,53.22,182.5Z"/><path class="cls-16" d="M119.13,157.83c.13-1-.7-8.13.81-15.08.68-3.12,2-8,2.79-7.93s.68,5.18.29,9c-.71,6.87-10.84,69.27-3.89,14"/><path class="cls-19" d="M119.13,157.83c.13-1-.7-8.13.81-15.08.68-3.12,2-8,2.79-7.93s.68,5.18.29,9C122.31,150.72,112.18,213.12,119.13,157.83Z"/><path class="cls-16" d="M135.22,156.28c.11-1-.82-8.12.58-15.08.64-3.14,1.93-8.08,2.68-8s.76,5.17.42,9c-.61,6.87-9.8,69.42-3.68,14"/><path class="cls-19" d="M135.22,156.28c.11-1-.82-8.12.58-15.08.64-3.14,1.93-8.08,2.68-8s.76,5.17.42,9C138.29,149.12,129.1,211.67,135.22,156.28Z"/><path class="cls-16" d="M105.85,163.27c.09-1-.78-8.07.39-14.85.52-3,1.61-7.83,2.26-7.68s.7,5.17.44,8.94c-.48,6.74-8,67.83-3.09,13.59"/><path class="cls-20" d="M105.85,163.27c.09-1-.78-8.07.39-14.85.52-3,1.61-7.83,2.26-7.68s.7,5.17.44,8.94C108.46,156.42,101,217.51,105.85,163.27Z"/><path class="cls-16" d="M88.34,172.62c.34-.93,1.12-8.09,4.13-14.53,1.35-2.89,3.77-7.39,4.48-7.12s-.49,5.21-1.72,8.88C93,166.38,69.32,225,88.34,172.62"/><path class="cls-19" d="M88.34,172.62c.34-.93,1.12-8.09,4.13-14.53,1.35-2.89,3.77-7.39,4.48-7.12s-.49,5.21-1.72,8.88C93,166.38,69.32,225,88.34,172.62Z"/><path class="cls-16" d="M72.91,181.84c.42-.89,1.82-8,5.38-14.11,1.6-2.77,4.4-7,5.08-6.7s-.94,5.15-2.49,8.69c-2.77,6.32-31.48,62.64-8,12.12"/><path class="cls-19" d="M72.91,181.84c.42-.89,1.82-8,5.38-14.11,1.6-2.77,4.4-7,5.08-6.7s-.94,5.15-2.49,8.69C78.11,176,49.4,232.36,72.91,181.84Z"/><path class="cls-16" d="M145.65,120.52c7.12,2.58,10.13,11.08,19.35,17.11,5.46,3.57,6.77,8.63,10.16,14.85,10.9,20,8,55.41,9.89,37.74.3-2.77,4.86-20.37-5.77-40.47-5.77-10.93-24.76-32.8-31.59-37.22,0,0-.86,8.32-2,8"/><path class="cls-16" d="M200.43,175.72c-.72-.47-6.16-2.39-11.24-6.26-2.28-1.74-5.84-4.74-5.69-5.35s4,1.32,6.81,3.08c5.09,3.15,51,34.95,10.12,8.53"/><path class="cls-21" d="M200.43,175.72c-.72-.47-6.16-2.39-11.24-6.26-2.28-1.74-5.84-4.74-5.69-5.35s4,1.32,6.81,3.08C195.4,170.34,241.28,202.14,200.43,175.72Z"/><path class="cls-16" d="M196.06,160.31A45.58,45.58,0,0,1,185,156.59c-2.38-1.25-6.16-3.48-6.19-4.15s3.67.39,6.53,1.52c5.1,2,52,23.72,10.74,6.35"/><path class="cls-22" d="M196.06,160.31A45.58,45.58,0,0,1,185,156.59c-2.38-1.25-6.16-3.48-6.19-4.15s3.67.39,6.53,1.52C190.42,156,237.32,177.68,196.06,160.31Z"/><path class="cls-16" d="M193.94,147c-.94-.28-7.64-.72-14.33-3.31-3-1.16-7.78-3.27-7.74-4s4.86.24,8.53,1.27c6.55,1.82,66.42,21.85,13.54,6"/><path class="cls-23" d="M193.94,147c-.94-.28-7.64-.72-14.33-3.31-3-1.16-7.78-3.27-7.74-4s4.86.24,8.53,1.27C187,142.85,246.82,162.88,193.94,147Z"/><path class="cls-16" d="M184.14,135.34c-.93-.28-7.63-.72-14.33-3.31-3-1.16-7.78-3.27-7.73-3.95s4.85.24,8.52,1.26c6.56,1.83,66.43,21.86,13.54,6"/><path class="cls-23" d="M184.14,135.34c-.93-.28-7.63-.72-14.33-3.31-3-1.16-7.78-3.27-7.73-3.95s4.85.24,8.52,1.26C177.16,131.17,237,151.2,184.14,135.34Z"/><path class="cls-16" d="M171.22,123.69c-.94-.28-7.64-.73-14.33-3.31-3-1.17-7.78-3.28-7.74-3.95s4.86.24,8.53,1.26c6.55,1.83,66.42,21.86,13.54,6"/><path class="cls-23" d="M171.22,123.69c-.94-.28-7.64-.73-14.33-3.31-3-1.17-7.78-3.28-7.74-3.95s4.86.24,8.53,1.26C164.23,119.52,224.1,139.55,171.22,123.69Z"/><path class="cls-16" d="M203.21,188.3a52,52,0,0,1-9.67-7.08c-1.92-1.89-4.88-5.12-4.68-5.69s3.5,1.64,5.94,3.6c4.34,3.51,43.19,38.47,8.41,9.17"/><path class="cls-24" d="M203.21,188.3a52,52,0,0,1-9.67-7.08c-1.92-1.89-4.88-5.12-4.68-5.69s3.5,1.64,5.94,3.6C199.14,182.64,238,217.6,203.21,188.3Z"/><path class="cls-16" d="M194.08,193.61c-.34-.66-3.79-4.53-5.83-9.58-.92-2.27-2.2-6-1.73-6.37s2.55,2.76,3.93,5.32c2.46,4.55,22.75,48,3.63,10.63"/><path class="cls-25" d="M194.08,193.61c-.34-.66-3.79-4.53-5.83-9.58-.92-2.27-2.2-6-1.73-6.37s2.55,2.76,3.93,5.32C192.91,187.53,213.2,231,194.08,193.61Z"/><path class="cls-16" d="M158.16,141.66c.2-.55,2.9-3.3,3.94-7.73.46-2,1-5.36.45-5.88s-2,1.93-2.88,4c-1.56,3.78-13.23,41-1.51,9.56"/><path class="cls-26" d="M158.16,141.66c.2-.55,2.9-3.3,3.94-7.73.46-2,1-5.36.45-5.88s-2,1.93-2.88,4C158.11,135.88,146.44,173.07,158.16,141.66Z"/><path class="cls-16" d="M149,130.24a17.46,17.46,0,0,0,2.72-6.87c.24-1.81.43-4.89-.06-5.41s-1.54,1.64-2.11,3.54c-1,3.38-8,37-.55,8.74"/><path class="cls-27" d="M149,130.24a17.46,17.46,0,0,0,2.72-6.87c.24-1.81.43-4.89-.06-5.41s-1.54,1.64-2.11,3.54C148.57,124.88,141.59,158.46,149,130.24Z"/><path class="cls-16" d="M167.52,151.46c.25-.63,3.33-4.3,4.68-9.15.6-2.18,1.34-5.78.77-6.13s-2.29,2.61-3.35,5c-1.89,4.35-16.41,46-2.1,10.23"/><path class="cls-28" d="M167.52,151.46c.25-.63,3.33-4.3,4.68-9.15.6-2.18,1.34-5.78.77-6.13s-2.29,2.61-3.35,5C167.73,145.58,153.21,187.22,167.52,151.46Z"/><path class="cls-16" d="M176.16,169.46c.19-.75,3.06-5.15,3.88-10.82.37-2.55.69-6.75,0-7.12s-2.15,3.14-3,6c-1.48,5.14-11.77,54-.92,11.93"/><path class="cls-29" d="M176.16,169.46c.19-.75,3.06-5.15,3.88-10.82.37-2.55.69-6.75,0-7.12s-2.15,3.14-3,6C175.6,162.67,165.31,211.56,176.16,169.46Z"/><path class="cls-16" d="M181.19,188.45c.18-.84,3-6.08,3.7-12.37.3-2.83.51-7.45-.19-7.74s-2.14,3.75-2.91,7c-1.38,5.81-10.55,60.55-.6,13.1"/><path class="cls-23" d="M181.19,188.45c.18-.84,3-6.08,3.7-12.37.3-2.83.51-7.45-.19-7.74s-2.14,3.75-2.91,7C180.41,181.16,171.24,235.9,181.19,188.45Z"/><path class="cls-16" d="M158.34,127.7c17.67-19.7,13-11.4,16.63-13.29a46.28,46.28,0,0,1,17.94-5.19c21.9-1.72,60.64,22.23,41.29,9.73-3-2-22.32-17.68-44.3-16.34-1.77.11-25.06,4.32-36.27,17.75,0,0,5.05,6.08,4.71,7.34"/><path class="cls-16" d="M234.18,86.37c-.3,1-.77,8.89-3.58,15.56-1.27,3-3.56,7.58-4.3,7.14s.25-5.77,1.36-9.66c2-6.93,23.72-68.32,6.52-13"/><path class="cls-30" d="M234.18,86.37c-.3,1-.77,8.89-3.58,15.56-1.27,3-3.56,7.58-4.3,7.14s.25-5.77,1.36-9.66C229.63,92.48,251.38,31.09,234.18,86.37Z"/><path class="cls-16" d="M218.18,79.44c-.3,1-.77,8.88-3.58,15.55-1.27,3-3.56,7.59-4.3,7.15s.25-5.78,1.36-9.66c2-6.93,23.72-68.33,6.52-13"/><path class="cls-30" d="M218.18,79.44c-.3,1-.77,8.88-3.58,15.55-1.27,3-3.56,7.59-4.3,7.15s.25-5.78,1.36-9.66C213.64,85.55,235.38,24.15,218.18,79.44Z"/><path class="cls-16" d="M201.7,76.16c-.31,1-.77,8.89-3.58,15.55-1.27,3-3.56,7.59-4.3,7.15s.25-5.78,1.36-9.66c2-6.93,23.72-68.33,6.52-13"/><path class="cls-30" d="M201.7,76.16c-.31,1-.77,8.89-3.58,15.55-1.27,3-3.56,7.59-4.3,7.15s.25-5.78,1.36-9.66C197.16,82.27,218.9,20.87,201.7,76.16Z"/><path class="cls-16" d="M184.3,82.81c-.31,1-.77,8.89-3.58,15.56-1.27,3-3.56,7.58-4.3,7.14s.25-5.77,1.36-9.66c2-6.93,23.72-68.32,6.52-13"/><path class="cls-30" d="M184.3,82.81c-.31,1-.77,8.89-3.58,15.56-1.27,3-3.56,7.58-4.3,7.14s.25-5.77,1.36-9.66C179.75,88.92,201.5,27.53,184.3,82.81Z"/><path class="cls-16" d="M172.66,79.36c-.28,4.22-6.78,22.26-9.86,25.19-2.36,2.24-3.56,7.59-4.3,7.14s-1-6.4,1.36-9.65"/><path class="cls-30" d="M172.66,79.36c-.28,4.22-6.78,22.26-9.86,25.19-2.36,2.24-3.56,7.59-4.3,7.14s-1-6.4,1.36-9.65"/><path class="cls-16" d="M248.75,95.27c-.63.72-3.69,7.32-8.72,11.92-2.27,2.06-6.09,5.09-6.7,4.42s2.15-4.86,4.54-7.75c4.28-5.16,46.43-49.17,10.88-8.59"/><path class="cls-30" d="M248.75,95.27c-.63.72-3.69,7.32-8.72,11.92-2.27,2.06-6.09,5.09-6.7,4.42s2.15-4.86,4.54-7.75C242.15,98.7,284.3,54.69,248.75,95.27Z"/><path class="cls-16" d="M264.4,111.66c-.93.23-6.78,3.82-13.73,4.82-3.13.44-8.21.83-8.52,0s4.2-2.69,7.81-3.72c6.44-1.82,67-14.45,14.44-1.08"/><path class="cls-30" d="M264.4,111.66c-.93.23-6.78,3.82-13.73,4.82-3.13.44-8.21.83-8.52,0s4.2-2.69,7.81-3.72C256.4,110.92,317,98.29,264.4,111.66Z"/><path class="cls-16" d="M272.09,132.65c-1-.27-8.31-.32-15.64-3-3.29-1.2-8.5-3.43-8.47-4.26s5.29-.06,9.3.92c7.16,1.74,72.58,21.83,14.81,6.33"/><path class="cls-30" d="M272.09,132.65c-1-.27-8.31-.32-15.64-3-3.29-1.2-8.5-3.43-8.47-4.26s5.29-.06,9.3.92C264.44,128.06,329.86,148.15,272.09,132.65Z"/><path class="cls-16" d="M202.94,141.31c-.74-.94-4.76-8.66-10.52-15-2.6-2.84-6.91-7.16-7.44-6.67s2.85,5.65,5.68,9.38c5.07,6.64,54.08,65.16,12.28,12.27"/><path class="cls-30" d="M202.94,141.31c-.74-.94-4.76-8.66-10.52-15-2.6-2.84-6.91-7.16-7.44-6.67s2.85,5.65,5.68,9.38C195.73,135.68,244.74,194.2,202.94,141.31Z"/><path class="cls-16" d="M189,148c-.73-.94-4.65-8.71-10.35-15.1-2.56-2.88-6.83-7.26-7.37-6.77s2.78,5.67,5.58,9.43c5,6.71,53.34,65.86,12.14,12.44"/><path class="cls-30" d="M189,148c-.73-.94-4.65-8.71-10.35-15.1-2.56-2.88-6.83-7.26-7.37-6.77s2.78,5.67,5.58,9.43C181.83,142.26,230.19,201.41,189,148Z"/><path class="cls-16" d="M217.18,140.05c-.7-.94-4.66-8.65-10-15-2.42-2.84-6.42-7.17-6.85-6.68s2.82,5.64,5.51,9.36c4.79,6.64,50.81,65.17,11.37,12.29"/><path class="cls-31" d="M217.18,140.05c-.7-.94-4.66-8.65-10-15-2.42-2.84-6.42-7.17-6.85-6.68s2.82,5.64,5.51,9.36C210.6,134.4,256.62,192.93,217.18,140.05Z"/><path class="cls-16" d="M237.38,140.6c-.88-.78-6.19-7.68-12.83-12.71-3-2.26-7.87-5.61-8.26-5s3.8,5.07,7.19,8.17c6.06,5.54,63.5,53.23,13.9,9.51"/><path class="cls-30" d="M237.38,140.6c-.88-.78-6.19-7.68-12.83-12.71-3-2.26-7.87-5.61-8.26-5s3.8,5.07,7.19,8.17C229.54,136.63,287,184.32,237.38,140.6Z"/><path class="cls-16" d="M255.83,142.09c-.92-.7-6.67-7.19-13.56-11.64-3.1-2-8.15-4.93-8.48-4.24s4.12,4.78,7.69,7.6c6.37,5,66.34,47.8,14.35,8.28"/><path class="cls-30" d="M255.83,142.09c-.92-.7-6.67-7.19-13.56-11.64-3.1-2-8.15-4.93-8.48-4.24s4.12,4.78,7.69,7.6C247.85,138.84,307.82,181.61,255.83,142.09Z"/></g></g></g></svg>