<svg id="Layer_1" data-name="Layer 1" xmlns="http://www.w3.org/2000/svg" xmlns:xlink="http://www.w3.org/1999/xlink" viewBox="0 0 288 288"><defs><style>.cls-1{fill:none;}.cls-2{clip-path:url(#clip-path);}.cls-3{clip-path:url(#clip-path-2);}.cls-4{fill:#ffbf00;}</style><clipPath id="clip-path"><rect class="cls-1" x="10.52" y="124.8" width="263.98" height="81.45"/></clipPath><clipPath id="clip-path-2"><rect class="cls-1" x="10.52" y="124.8" width="263.98" height="81.45"/></clipPath></defs><g id="soy"><g class="cls-2"><g class="cls-3"><path d="M169.87,135.88l8.84,2.26,4.91,1.24,4.15,4.79,3.29,2.57,3.31,3.46,1.92,10.19-1.23,5.1-3.32,3.88-3.48,3.55-8.47,5.53-9.92,1-4.88-.79-5.35,0-9.55-2.47-6.8-6.29a51.64,51.64,0,0,1-3.36-6.62,17.6,17.6,0,0,1-.35-5.53l0-7.84,2.71-4.18,3.09-4.13,4.52-2.2,10-1Z"/><path d="M240.25,171.49l-9,1-5,.57-5.55-3-3.95-1.25-4.3-2.06-5.35-8.81-.64-5.17,1.73-4.78,2-4.52,5.94-8.11L225,131l4.81-1,5-1.89,9.76-1,8.52,3.47a50.74,50.74,0,0,1,5.45,5,17.39,17.39,0,0,1,2.26,5l2.71,7.3-1.05,4.84L261,157.6l-3.44,3.63-9,4.44Z"/><polygon points="102.61 124.99 111.67 128.06 116.71 129.74 119.45 134.91 123.91 137.84 127.11 141.63 128.32 152.12 126.64 157.17 122.85 160.81 118.94 164.1 109.64 168.95 99.19 169.08 94.16 167.85 88.97 167.22 78.76 164.06 71.59 156.25 69.47 151.4 69.21 144.48 69.86 136.55 73.02 132.55 76.57 128.64 81.48 126.81 91.53 124.8 102.61 124.99"/><path class="cls-4" d="M186.56,152.29l14.66,3.77,4.44-1.33s15.55-10.21,16.43-10.44S242.3,141,243,140.74s20.43-1.55,20.43-1.55,5.77,2,6.88,3.11,4.22,3.77,4.22,5.33-3.11,14.87-3.11,14.87l-7.33,16.44s-12.21,12-13.54,12.66-14.44,4.88-14.44,4.88H208.55l-8,1.55-8,.89L177,205.07l-17.57,1.18-23-4.66-12.29-3.7-10.43-.3-8.44.44-17.55-4.22S70.42,186,70.2,185.38,60,174.94,59.54,174.27s-11.77-10-11.77-10-24.2-11.77-24.64-12.88-6.67-9.33-6.67-9.33l4.89-7.1s33.31-.45,34.2,0c.58.29,47.74,3.7,47.74,3.7l18,4.07,12,6.44,6.44,2.66,5.77.89,15.08-2.93,16.9-.18Z"/><polygon points="144.82 192.83 155.82 197.23 165.94 198.05 173.98 197.3 180.93 193.99 187.87 188.01 190.83 183.37 191.91 175.76 186.67 182.84 177.72 188.81 168.02 191.47 157.25 193.8 144.82 192.83"/><polygon points="73.26 172.26 78.15 179.66 86.77 185.28 98.49 187.02 105.75 186.22 114.53 182.09 117.93 179.78 121.77 175.01 125.91 166.38 124.15 166.74 119.12 172.56 113.91 176.8 104.39 179.24 92.65 179.91 82.11 176.7 73.26 172.26"/><polygon points="259.09 167.03 255 177.23 249.09 184.06 242.21 187.41 233.08 189.38 226.85 189.1 219.09 186 216.03 184.19 212.76 180.06 218.93 182.46 228.02 182.95 239.18 180.61 246.08 177.14 251.28 173.79 259.09 167.03"/><path d="M18.67,144.58l3.8,3.14a47.94,47.94,0,0,0,4.1-3.39c.21-.43-.26-8.06-1.27-8s-12.89-4-12.89-4l-1.89,9.34Z"/></g></g></g></svg>