<?xml version="1.0" encoding="UTF-8"?><svg id="Layer_2" xmlns="http://www.w3.org/2000/svg" viewBox="0 0 109.18 160.1"><defs><style>.cls-1{stroke:#000;}.cls-1,.cls-2{stroke-miterlimit:10;stroke-width:3px;}.cls-2{fill:#fdc300;stroke:#fdc300;}.cls-3{fill:#fff;stroke-width:0px;}</style></defs><g id="Layer_1-2"><path class="cls-1" d="m49.44,20.96l-9.63,12.84c-.16.21-.29.44-.39.69l-10.29,25.15-13.35,33.05c-.13.33-.21.69-.22,1.05l-1.3,34.59c-.03.77.23,1.53.73,2.12l22.8,26.93c.59.69,1.45,1.09,2.36,1.1l30.13.13c.8,0,1.58-.31,2.16-.86l24.01-23c.4-.38.69-.86.84-1.39l10.27-35.96c.2-.7.15-1.44-.14-2.1l-14.09-32.03c-.07-.15-.14-.29-.23-.43l-11.51-17.89c-.17-.26-.37-.49-.61-.69l-14.48-12.25c-.16-.14-.31-.29-.45-.46l-10.93-14.05c-1.67-2.15-5.11-.97-5.11,1.75h0c0,.62-.2,1.22-.57,1.71Z"/><path class="cls-2" d="m36.95,14.8l-9.9,13.2c-.16.21-.29.44-.39.69l-10.29,25.15L3.03,86.88c-.13.33-.21.69-.22,1.05l-1.3,34.59c-.03.77.23,1.53.73,2.12l22.8,26.93c.59.69,1.45,1.09,2.36,1.1l30.13.13c.8,0,1.58-.31,2.16-.86l24.01-23c.4-.38.69-.86.84-1.39l10.27-35.96c.2-.7.15-1.44-.14-2.1l-14.09-32.03c-.07-.15-.14-.29-.23-.43l-11.77-18.28-10.36-14.96c-.05-.08-.1-.16-.15-.24L46.49,3.08c-1.32-2.34-4.8-2.01-5.65.55l-3.43,10.29c-.11.32-.26.61-.46.88Z"/><path class="cls-3" d="m68.18,86.78l2.04,15.4c.08.57,0,1.11-.22,1.58l-9.15,19.52c-.16.35-.4.65-.7.89l-10.08,8.12c-.21.17-.46.31-.73.41h0c-3.31,1.19-1.58,6.21,2.27,6.6l3.71.37c.85.09,1.65-.12,2.24-.57l13.22-10.12c.3-.23.54-.52.71-.85l8.89-17.48c.17-.33.26-.7.28-1.1l.76-15.89c.05-1.04-.44-2.14-1.33-2.98l-6.03-5.72c-2.53-2.4-6.3-1.25-5.9,1.81Z"/></g></svg>