<svg id="Layer_1" data-name="Layer 1" xmlns="http://www.w3.org/2000/svg" viewBox="0 0 288 288"><defs><style>.cls-1{fill:#070606;}.cls-2{fill:#fecf01;}.cls-3{fill:#fff;}</style></defs><path class="cls-1" d="M151.13,127.26l1.78,6.79s-1,19.87-.89,24.12S150.85,204,150,213.29s2.09,42.55,2.09,42.55l-8.59-.62-3.69-3,1.72-38.92,3.16-30.08,1-27.74Z"/><path class="cls-1" d="M155.22,123.47c-2.12-7.22-5.85-27.79-5.2-29.91s7.44-24.62,8.71-26.74c1.14-1.9,28.7-29.17,44.46-34.61,1.86-.65,1.35,5.6,1.35,11.07a90.38,90.38,0,0,0-1.24,20.14s-2.54,22.07-3.82,25.89-14.71,25.9-19.88,28-14.3,6.14-14.3,6.14Z"/><path class="cls-1" d="M154.31,194.16c-1-3.79,4.34-6.52,7.73-26.31,4.86-5.85,8.51-14.86,13.49-21.6,13.36-18.11,45.26-22,45.26-22l26.71-6.84-6.19,20.77L228.9,171.84s-27.63,25.79-35,27.09-14.38,3-17.4,3.47S154.31,194.16,154.31,194.16Z"/><path class="cls-2" d="M131.89,189c3.88-.19,1.48-38.49,1.48-38.49s-5.62-17-6.66-20.38S101,98.54,92.5,94.29c-9.9-4.93-43.84-21.5-52-20.65,3.44,8,8.23,17.28,9.42,23.69s6.7,38.08,12.74,46.4,30.16,32.56,30.16,32.56S125.86,189.27,131.89,189Z"/><path class="cls-2" d="M154.31,194.16c-1-3.79,0-10.35,3.39-30.13,4.87-5.86,8.51-14.87,13.49-21.61,13.36-18.1,45.27-22,45.27-22l31-3-13.8,19-12.5,31.47s-26.73,25-34.06,26.3S169,198.47,166,198.9,154.31,194.16,154.31,194.16Z"/><path class="cls-2" d="M150.55,123.47c-2.12-7.22-7.24-31-6.59-33.11s7.44-24.62,8.71-26.74,36.93-30.56,50.52-31.41c-5.95,11.88-5.95,28-5.95,28s-2.54,22.08-3.82,25.9-14.71,25.89-19.88,28-18.32,9.34-18.32,9.34Z"/><path class="cls-2" d="M144.79,131.75l5.58-4.49s-2.94,26.66-2.79,30.91-1.17,45.83-2.06,55.12,2.06,38.92,2.06,38.92h-7.81l-2.72-7.08V213.29l3.16-30.08,1-27.74Z"/><polygon class="cls-3" points="149.16 123.19 156.34 100.93 165.89 80.25 177.99 64.22 169.61 83.66 160.39 104.17 153.54 125.05 149.16 123.19"/><path class="cls-3" d="M203.62,155.47c-3.72,0-21.23,8.81-21.23,8.81l-13.16,9.45-16.32,17.36,2.24,5.94,18.49-15.74,16.16-13.23Z"/><path class="cls-3" d="M78.81,124.49C87.47,129,105,138.15,106.56,141s11.61,16.84,11.61,16.84L135.36,189l-5.17,1.19s-7.87-14.42-10-17.73-12.11-21-12.11-21-11.34-13.72-14.75-14.75S78.81,124.49,78.81,124.49Z"/></svg>